<?xml version="1.0" encoding="us-ascii" standalone="no"?><svg xmlns="http://www.w3.org/2000/svg" xmlns:xlink="http://www.w3.org/1999/xlink" contentStyleType="text/css" height="595px" preserveAspectRatio="none" style="width:1486px;height:595px;background:#FFFFFF;" version="1.1" viewBox="0 0 1486 595" width="1486px" zoomAndPan="magnify"><defs/><g><!--class Ingrediente--><g id="elem_Ingrediente"><rect codeLine="2" fill="#F1F1F1" height="105.2038" id="Ingrediente" rx="2.5" ry="2.5" style="stroke:#181818;stroke-width:0.5;" width="139" x="431" y="7"/><ellipse cx="461.3" cy="23" fill="#A9DCDF" rx="11" ry="11" style="stroke:#181818;stroke-width:1.0;"/><path d="M459.925,16.3594 L462.9094,16.3594 L466.2688,28.75 L463.8156,28.75 L463.05,25.6875 L459.7688,25.6875 L459.0188,28.75 L456.5813,28.75 L459.925,16.3594 Z M462.5813,23.6719 L461.4094,18.5938 L460.2531,23.6719 L462.5813,23.6719 Z " fill="#000000"/><text fill="#000000" font-family="sans-serif" font-size="14" font-style="italic" lengthAdjust="spacing" textLength="73" x="478.7" y="28.432">Ingrediente</text><line style="stroke:#181818;stroke-width:0.5;" x1="432" x2="569" y1="39" y2="39"/><polygon fill="none" points="442,49.034,446,53.034,442,57.034,438,53.034" style="stroke:#B38D22;stroke-width:1.0;"/><text fill="#000000" font-family="sans-serif" font-size="14" lengthAdjust="spacing" textLength="53" x="451" y="57.9659">nombre</text><line style="stroke:#181818;stroke-width:0.5;" x1="432" x2="569" y1="66.0679" y2="66.0679"/><ellipse cx="442" cy="81.1019" fill="#84BE84" rx="3" ry="3" style="stroke:#038048;stroke-width:1.0;"/><text fill="#000000" font-family="sans-serif" font-size="14" lengthAdjust="spacing" textLength="113" x="451" y="85.0339">String describir()</text><text fill="#000000" font-family="sans-serif" font-size="14" font-style="italic" lengthAdjust="spacing" textLength="90" x="451" y="104.1018">void mostrar()</text></g><!--class Pan--><g id="elem_Pan"><rect codeLine="8" fill="#F1F1F1" height="67.0679" id="Pan" rx="2.5" ry="2.5" style="stroke:#181818;stroke-width:0.5;" width="157" x="142" y="191"/><ellipse cx="204.25" cy="207" fill="#A9DCDF" rx="11" ry="11" style="stroke:#181818;stroke-width:1.0;"/><path d="M202.875,200.3594 L205.8594,200.3594 L209.2188,212.75 L206.7656,212.75 L206,209.6875 L202.7188,209.6875 L201.9688,212.75 L199.5313,212.75 L202.875,200.3594 Z M205.5313,207.6719 L204.3594,202.5938 L203.2031,207.6719 L205.5313,207.6719 Z " fill="#000000"/><text fill="#000000" font-family="sans-serif" font-size="14" font-style="italic" lengthAdjust="spacing" textLength="24" x="224.75" y="212.432">Pan</text><line style="stroke:#181818;stroke-width:0.5;" x1="143" x2="298" y1="223" y2="223"/><line style="stroke:#181818;stroke-width:0.5;" x1="143" x2="298" y1="231" y2="231"/><polygon fill="#FFFF44" points="153,241.034,157,245.034,153,249.034,149,245.034" style="stroke:#B38D22;stroke-width:1.0;"/><text fill="#000000" font-family="sans-serif" font-size="14" lengthAdjust="spacing" textLength="131" x="162" y="249.9659">Pan(String nombre)</text></g><!--class Integral--><g id="elem_Integral"><rect codeLine="12" fill="#F1F1F1" height="86.1358" id="Integral" rx="2.5" ry="2.5" style="stroke:#181818;stroke-width:0.5;" width="119" x="7" y="346.5"/><ellipse cx="36.85" cy="362.5" fill="#ADD1B2" rx="11" ry="11" style="stroke:#181818;stroke-width:1.0;"/><path d="M36.6469,369.2344 Q34.1625,369.2344 32.8344,367.5938 Q31.5219,365.9219 31.5219,362.8125 Q31.5219,359.6875 32.8344,358.0313 Q34.1625,356.375 36.6469,356.375 Q37.3656,356.375 38.0219,356.5313 Q38.6625,356.6875 39.225,356.9844 L39.225,359.7031 Q38.8656,359.3594 38.5688,359.1719 Q38.2719,358.9688 38.0063,358.8438 Q37.6938,358.7031 37.3813,358.6406 Q37.0844,358.5781 36.7719,358.5781 Q35.4438,358.5781 34.7563,359.6406 Q34.0688,360.7344 34.0688,362.8125 Q34.0688,364.9063 34.7563,365.9688 Q35.4438,367.0469 36.7719,367.0469 Q37.4125,367.0469 38.0063,366.7656 Q38.3031,366.6406 38.5844,366.4531 Q38.8813,366.25 39.225,365.9219 L39.225,368.6406 Q38.6469,368.9375 38.0063,369.0938 Q37.3813,369.2344 36.6469,369.2344 Z " fill="#000000"/><text fill="#000000" font-family="sans-serif" font-size="14" lengthAdjust="spacing" textLength="54" x="54.15" y="367.932">Integral</text><line style="stroke:#181818;stroke-width:0.5;" x1="8" x2="125" y1="378.5" y2="378.5"/><line style="stroke:#181818;stroke-width:0.5;" x1="8" x2="125" y1="386.5" y2="386.5"/><ellipse cx="18" cy="401.534" fill="#84BE84" rx="3" ry="3" style="stroke:#038048;stroke-width:1.0;"/><text fill="#000000" font-family="sans-serif" font-size="14" lengthAdjust="spacing" textLength="62" x="27" y="405.4659">Integral()</text><ellipse cx="18" cy="420.6019" fill="#84BE84" rx="3" ry="3" style="stroke:#038048;stroke-width:1.0;"/><text fill="#000000" font-family="sans-serif" font-size="14" lengthAdjust="spacing" textLength="93" x="27" y="424.5339">void mostrar()</text></g><!--class Brioche--><g id="elem_Brioche"><rect codeLine="17" fill="#F1F1F1" height="86.1358" id="Brioche" rx="2.5" ry="2.5" style="stroke:#181818;stroke-width:0.5;" width="119" x="161" y="346.5"/><ellipse cx="192.2" cy="362.5" fill="#ADD1B2" rx="11" ry="11" style="stroke:#181818;stroke-width:1.0;"/><path d="M191.9969,369.2344 Q189.5125,369.2344 188.1844,367.5938 Q186.8719,365.9219 186.8719,362.8125 Q186.8719,359.6875 188.1844,358.0313 Q189.5125,356.375 191.9969,356.375 Q192.7156,356.375 193.3719,356.5313 Q194.0125,356.6875 194.575,356.9844 L194.575,359.7031 Q194.2156,359.3594 193.9188,359.1719 Q193.6219,358.9688 193.3563,358.8438 Q193.0438,358.7031 192.7313,358.6406 Q192.4344,358.5781 192.1219,358.5781 Q190.7938,358.5781 190.1063,359.6406 Q189.4188,360.7344 189.4188,362.8125 Q189.4188,364.9063 190.1063,365.9688 Q190.7938,367.0469 192.1219,367.0469 Q192.7625,367.0469 193.3563,366.7656 Q193.6531,366.6406 193.9344,366.4531 Q194.2313,366.25 194.575,365.9219 L194.575,368.6406 Q193.9969,368.9375 193.3563,369.0938 Q192.7313,369.2344 191.9969,369.2344 Z " fill="#000000"/><text fill="#000000" font-family="sans-serif" font-size="14" lengthAdjust="spacing" textLength="51" x="209.8" y="367.932">Brioche</text><line style="stroke:#181818;stroke-width:0.5;" x1="162" x2="279" y1="378.5" y2="378.5"/><line style="stroke:#181818;stroke-width:0.5;" x1="162" x2="279" y1="386.5" y2="386.5"/><ellipse cx="172" cy="401.534" fill="#84BE84" rx="3" ry="3" style="stroke:#038048;stroke-width:1.0;"/><text fill="#000000" font-family="sans-serif" font-size="14" lengthAdjust="spacing" textLength="59" x="181" y="405.4659">Brioche()</text><ellipse cx="172" cy="420.6019" fill="#84BE84" rx="3" ry="3" style="stroke:#038048;stroke-width:1.0;"/><text fill="#000000" font-family="sans-serif" font-size="14" lengthAdjust="spacing" textLength="93" x="181" y="424.5339">void mostrar()</text></g><!--class Carne--><g id="elem_Carne"><rect codeLine="22" fill="#F1F1F1" height="105.2038" id="Carne" rx="2.5" ry="2.5" style="stroke:#181818;stroke-width:0.5;" width="275" x="363" y="172"/><ellipse cx="477.75" cy="188" fill="#A9DCDF" rx="11" ry="11" style="stroke:#181818;stroke-width:1.0;"/><path d="M476.375,181.3594 L479.3594,181.3594 L482.7188,193.75 L480.2656,193.75 L479.5,190.6875 L476.2188,190.6875 L475.4688,193.75 L473.0313,193.75 L476.375,181.3594 Z M479.0313,188.6719 L477.8594,183.5938 L476.7031,188.6719 L479.0313,188.6719 Z " fill="#000000"/><text fill="#000000" font-family="sans-serif" font-size="14" font-style="italic" lengthAdjust="spacing" textLength="37" x="498.25" y="193.432">Carne</text><line style="stroke:#181818;stroke-width:0.5;" x1="364" x2="637" y1="204" y2="204"/><polygon fill="none" points="374,214.034,378,218.034,374,222.034,370,218.034" style="stroke:#B38D22;stroke-width:1.0;"/><text fill="#000000" font-family="sans-serif" font-size="14" lengthAdjust="spacing" textLength="95" x="383" y="222.9659">String coccion</text><line style="stroke:#181818;stroke-width:0.5;" x1="364" x2="637" y1="231.0679" y2="231.0679"/><polygon fill="#FFFF44" points="374,241.1019,378,245.1019,374,249.1019,370,245.1019" style="stroke:#B38D22;stroke-width:1.0;"/><text fill="#000000" font-family="sans-serif" font-size="14" lengthAdjust="spacing" textLength="249" x="383" y="250.0339">Carne(String nombre, String coccion)</text><ellipse cx="374" cy="265.1698" fill="#84BE84" rx="3" ry="3" style="stroke:#038048;stroke-width:1.0;"/><text fill="#000000" font-family="sans-serif" font-size="14" lengthAdjust="spacing" textLength="113" x="383" y="269.1018">String describir()</text></g><!--class Res--><g id="elem_Res"><rect codeLine="28" fill="#F1F1F1" height="86.1358" id="Res" rx="2.5" ry="2.5" style="stroke:#181818;stroke-width:0.5;" width="153" x="315" y="346.5"/><ellipse cx="375.25" cy="362.5" fill="#ADD1B2" rx="11" ry="11" style="stroke:#181818;stroke-width:1.0;"/><path d="M375.0469,369.2344 Q372.5625,369.2344 371.2344,367.5938 Q369.9219,365.9219 369.9219,362.8125 Q369.9219,359.6875 371.2344,358.0313 Q372.5625,356.375 375.0469,356.375 Q375.7656,356.375 376.4219,356.5313 Q377.0625,356.6875 377.625,356.9844 L377.625,359.7031 Q377.2656,359.3594 376.9688,359.1719 Q376.6719,358.9688 376.4063,358.8438 Q376.0938,358.7031 375.7813,358.6406 Q375.4844,358.5781 375.1719,358.5781 Q373.8438,358.5781 373.1563,359.6406 Q372.4688,360.7344 372.4688,362.8125 Q372.4688,364.9063 373.1563,365.9688 Q373.8438,367.0469 375.1719,367.0469 Q375.8125,367.0469 376.4063,366.7656 Q376.7031,366.6406 376.9844,366.4531 Q377.2813,366.25 377.625,365.9219 L377.625,368.6406 Q377.0469,368.9375 376.4063,369.0938 Q375.7813,369.2344 375.0469,369.2344 Z " fill="#000000"/><text fill="#000000" font-family="sans-serif" font-size="14" lengthAdjust="spacing" textLength="24" x="395.75" y="367.932">Res</text><line style="stroke:#181818;stroke-width:0.5;" x1="316" x2="467" y1="378.5" y2="378.5"/><line style="stroke:#181818;stroke-width:0.5;" x1="316" x2="467" y1="386.5" y2="386.5"/><ellipse cx="326" cy="401.534" fill="#84BE84" rx="3" ry="3" style="stroke:#038048;stroke-width:1.0;"/><text fill="#000000" font-family="sans-serif" font-size="14" lengthAdjust="spacing" textLength="127" x="335" y="405.4659">Res(String coccion)</text><ellipse cx="326" cy="420.6019" fill="#84BE84" rx="3" ry="3" style="stroke:#038048;stroke-width:1.0;"/><text fill="#000000" font-family="sans-serif" font-size="14" lengthAdjust="spacing" textLength="93" x="335" y="424.5339">void mostrar()</text></g><!--class Pollo--><g id="elem_Pollo"><rect codeLine="33" fill="#F1F1F1" height="86.1358" id="Pollo" rx="2.5" ry="2.5" style="stroke:#181818;stroke-width:0.5;" width="161" x="503" y="346.5"/><ellipse cx="563.25" cy="362.5" fill="#ADD1B2" rx="11" ry="11" style="stroke:#181818;stroke-width:1.0;"/><path d="M563.0469,369.2344 Q560.5625,369.2344 559.2344,367.5938 Q557.9219,365.9219 557.9219,362.8125 Q557.9219,359.6875 559.2344,358.0313 Q560.5625,356.375 563.0469,356.375 Q563.7656,356.375 564.4219,356.5313 Q565.0625,356.6875 565.625,356.9844 L565.625,359.7031 Q565.2656,359.3594 564.9688,359.1719 Q564.6719,358.9688 564.4063,358.8438 Q564.0938,358.7031 563.7813,358.6406 Q563.4844,358.5781 563.1719,358.5781 Q561.8438,358.5781 561.1563,359.6406 Q560.4688,360.7344 560.4688,362.8125 Q560.4688,364.9063 561.1563,365.9688 Q561.8438,367.0469 563.1719,367.0469 Q563.8125,367.0469 564.4063,366.7656 Q564.7031,366.6406 564.9844,366.4531 Q565.2813,366.25 565.625,365.9219 L565.625,368.6406 Q565.0469,368.9375 564.4063,369.0938 Q563.7813,369.2344 563.0469,369.2344 Z " fill="#000000"/><text fill="#000000" font-family="sans-serif" font-size="14" lengthAdjust="spacing" textLength="32" x="583.75" y="367.932">Pollo</text><line style="stroke:#181818;stroke-width:0.5;" x1="504" x2="663" y1="378.5" y2="378.5"/><line style="stroke:#181818;stroke-width:0.5;" x1="504" x2="663" y1="386.5" y2="386.5"/><ellipse cx="514" cy="401.534" fill="#84BE84" rx="3" ry="3" style="stroke:#038048;stroke-width:1.0;"/><text fill="#000000" font-family="sans-serif" font-size="14" lengthAdjust="spacing" textLength="135" x="523" y="405.4659">Pollo(String coccion)</text><ellipse cx="514" cy="420.6019" fill="#84BE84" rx="3" ry="3" style="stroke:#038048;stroke-width:1.0;"/><text fill="#000000" font-family="sans-serif" font-size="14" lengthAdjust="spacing" textLength="93" x="523" y="424.5339">void mostrar()</text></g><!--class Extra--><g id="elem_Extra"><rect codeLine="38" fill="#F1F1F1" height="67.0679" id="Extra" rx="2.5" ry="2.5" style="stroke:#181818;stroke-width:0.5;" width="166" x="794.5" y="191"/><ellipse cx="856.75" cy="207" fill="#A9DCDF" rx="11" ry="11" style="stroke:#181818;stroke-width:1.0;"/><path d="M855.375,200.3594 L858.3594,200.3594 L861.7188,212.75 L859.2656,212.75 L858.5,209.6875 L855.2188,209.6875 L854.4688,212.75 L852.0313,212.75 L855.375,200.3594 Z M858.0313,207.6719 L856.8594,202.5938 L855.7031,207.6719 L858.0313,207.6719 Z " fill="#000000"/><text fill="#000000" font-family="sans-serif" font-size="14" font-style="italic" lengthAdjust="spacing" textLength="33" x="877.25" y="212.432">Extra</text><line style="stroke:#181818;stroke-width:0.5;" x1="795.5" x2="959.5" y1="223" y2="223"/><line style="stroke:#181818;stroke-width:0.5;" x1="795.5" x2="959.5" y1="231" y2="231"/><polygon fill="#FFFF44" points="805.5,241.034,809.5,245.034,805.5,249.034,801.5,245.034" style="stroke:#B38D22;stroke-width:1.0;"/><text fill="#000000" font-family="sans-serif" font-size="14" lengthAdjust="spacing" textLength="140" x="814.5" y="249.9659">Extra(String nombre)</text></g><!--class Queso--><g id="elem_Queso"><rect codeLine="42" fill="#F1F1F1" height="67.0679" id="Queso" rx="2.5" ry="2.5" style="stroke:#181818;stroke-width:0.5;" width="175" x="699" y="356"/><ellipse cx="762.75" cy="372" fill="#A9DCDF" rx="11" ry="11" style="stroke:#181818;stroke-width:1.0;"/><path d="M761.375,365.3594 L764.3594,365.3594 L767.7188,377.75 L765.2656,377.75 L764.5,374.6875 L761.2188,374.6875 L760.4688,377.75 L758.0313,377.75 L761.375,365.3594 Z M764.0313,372.6719 L762.8594,367.5938 L761.7031,372.6719 L764.0313,372.6719 Z " fill="#000000"/><text fill="#000000" font-family="sans-serif" font-size="14" font-style="italic" lengthAdjust="spacing" textLength="39" x="783.25" y="377.432">Queso</text><line style="stroke:#181818;stroke-width:0.5;" x1="700" x2="873" y1="388" y2="388"/><line style="stroke:#181818;stroke-width:0.5;" x1="700" x2="873" y1="396" y2="396"/><polygon fill="#FFFF44" points="710,406.034,714,410.034,710,414.034,706,410.034" style="stroke:#B38D22;stroke-width:1.0;"/><text fill="#000000" font-family="sans-serif" font-size="14" lengthAdjust="spacing" textLength="149" x="719" y="414.9659">Queso(String nombre)</text></g><!--class Cheddar--><g id="elem_Cheddar"><rect codeLine="46" fill="#F1F1F1" height="86.1358" id="Cheddar" rx="2.5" ry="2.5" style="stroke:#181818;stroke-width:0.5;" width="119" x="627" y="502"/><ellipse cx="655.05" cy="518" fill="#ADD1B2" rx="11" ry="11" style="stroke:#181818;stroke-width:1.0;"/><path d="M654.8469,524.7344 Q652.3625,524.7344 651.0344,523.0938 Q649.7219,521.4219 649.7219,518.3125 Q649.7219,515.1875 651.0344,513.5313 Q652.3625,511.875 654.8469,511.875 Q655.5656,511.875 656.2219,512.0313 Q656.8625,512.1875 657.425,512.4844 L657.425,515.2031 Q657.0656,514.8594 656.7688,514.6719 Q656.4719,514.4688 656.2063,514.3438 Q655.8938,514.2031 655.5813,514.1406 Q655.2844,514.0781 654.9719,514.0781 Q653.6438,514.0781 652.9563,515.1406 Q652.2688,516.2344 652.2688,518.3125 Q652.2688,520.4063 652.9563,521.4688 Q653.6438,522.5469 654.9719,522.5469 Q655.6125,522.5469 656.2063,522.2656 Q656.5031,522.1406 656.7844,521.9531 Q657.0813,521.75 657.425,521.4219 L657.425,524.1406 Q656.8469,524.4375 656.2063,524.5938 Q655.5813,524.7344 654.8469,524.7344 Z " fill="#000000"/><text fill="#000000" font-family="sans-serif" font-size="14" lengthAdjust="spacing" textLength="58" x="671.95" y="523.432">Cheddar</text><line style="stroke:#181818;stroke-width:0.5;" x1="628" x2="745" y1="534" y2="534"/><line style="stroke:#181818;stroke-width:0.5;" x1="628" x2="745" y1="542" y2="542"/><ellipse cx="638" cy="557.034" fill="#84BE84" rx="3" ry="3" style="stroke:#038048;stroke-width:1.0;"/><text fill="#000000" font-family="sans-serif" font-size="14" lengthAdjust="spacing" textLength="66" x="647" y="560.9659">Cheddar()</text><ellipse cx="638" cy="576.1019" fill="#84BE84" rx="3" ry="3" style="stroke:#038048;stroke-width:1.0;"/><text fill="#000000" font-family="sans-serif" font-size="14" lengthAdjust="spacing" textLength="93" x="647" y="580.0339">void mostrar()</text></g><!--class Azul--><g id="elem_Azul"><rect codeLine="51" fill="#F1F1F1" height="86.1358" id="Azul" rx="2.5" ry="2.5" style="stroke:#181818;stroke-width:0.5;" width="119" x="781" y="502"/><ellipse cx="822.1" cy="518" fill="#ADD1B2" rx="11" ry="11" style="stroke:#181818;stroke-width:1.0;"/><path d="M821.8969,524.7344 Q819.4125,524.7344 818.0844,523.0938 Q816.7719,521.4219 816.7719,518.3125 Q816.7719,515.1875 818.0844,513.5313 Q819.4125,511.875 821.8969,511.875 Q822.6156,511.875 823.2719,512.0313 Q823.9125,512.1875 824.475,512.4844 L824.475,515.2031 Q824.1156,514.8594 823.8188,514.6719 Q823.5219,514.4688 823.2563,514.3438 Q822.9438,514.2031 822.6313,514.1406 Q822.3344,514.0781 822.0219,514.0781 Q820.6938,514.0781 820.0063,515.1406 Q819.3188,516.2344 819.3188,518.3125 Q819.3188,520.4063 820.0063,521.4688 Q820.6938,522.5469 822.0219,522.5469 Q822.6625,522.5469 823.2563,522.2656 Q823.5531,522.1406 823.8344,521.9531 Q824.1313,521.75 824.475,521.4219 L824.475,524.1406 Q823.8969,524.4375 823.2563,524.5938 Q822.6313,524.7344 821.8969,524.7344 Z " fill="#000000"/><text fill="#000000" font-family="sans-serif" font-size="14" lengthAdjust="spacing" textLength="29" x="841.9" y="523.432">Azul</text><line style="stroke:#181818;stroke-width:0.5;" x1="782" x2="899" y1="534" y2="534"/><line style="stroke:#181818;stroke-width:0.5;" x1="782" x2="899" y1="542" y2="542"/><ellipse cx="792" cy="557.034" fill="#84BE84" rx="3" ry="3" style="stroke:#038048;stroke-width:1.0;"/><text fill="#000000" font-family="sans-serif" font-size="14" lengthAdjust="spacing" textLength="37" x="801" y="560.9659">Azul()</text><ellipse cx="792" cy="576.1019" fill="#84BE84" rx="3" ry="3" style="stroke:#038048;stroke-width:1.0;"/><text fill="#000000" font-family="sans-serif" font-size="14" lengthAdjust="spacing" textLength="93" x="801" y="580.0339">void mostrar()</text></g><!--class Huevo--><g id="elem_Huevo"><rect codeLine="56" fill="#F1F1F1" height="86.1358" id="Huevo" rx="2.5" ry="2.5" style="stroke:#181818;stroke-width:0.5;" width="119" x="909" y="346.5"/><ellipse cx="944.25" cy="362.5" fill="#ADD1B2" rx="11" ry="11" style="stroke:#181818;stroke-width:1.0;"/><path d="M944.0469,369.2344 Q941.5625,369.2344 940.2344,367.5938 Q938.9219,365.9219 938.9219,362.8125 Q938.9219,359.6875 940.2344,358.0313 Q941.5625,356.375 944.0469,356.375 Q944.7656,356.375 945.4219,356.5313 Q946.0625,356.6875 946.625,356.9844 L946.625,359.7031 Q946.2656,359.3594 945.9688,359.1719 Q945.6719,358.9688 945.4063,358.8438 Q945.0938,358.7031 944.7813,358.6406 Q944.4844,358.5781 944.1719,358.5781 Q942.8438,358.5781 942.1563,359.6406 Q941.4688,360.7344 941.4688,362.8125 Q941.4688,364.9063 942.1563,365.9688 Q942.8438,367.0469 944.1719,367.0469 Q944.8125,367.0469 945.4063,366.7656 Q945.7031,366.6406 945.9844,366.4531 Q946.2813,366.25 946.625,365.9219 L946.625,368.6406 Q946.0469,368.9375 945.4063,369.0938 Q944.7813,369.2344 944.0469,369.2344 Z " fill="#000000"/><text fill="#000000" font-family="sans-serif" font-size="14" lengthAdjust="spacing" textLength="42" x="962.75" y="367.932">Huevo</text><line style="stroke:#181818;stroke-width:0.5;" x1="910" x2="1027" y1="378.5" y2="378.5"/><line style="stroke:#181818;stroke-width:0.5;" x1="910" x2="1027" y1="386.5" y2="386.5"/><ellipse cx="920" cy="401.534" fill="#84BE84" rx="3" ry="3" style="stroke:#038048;stroke-width:1.0;"/><text fill="#000000" font-family="sans-serif" font-size="14" lengthAdjust="spacing" textLength="50" x="929" y="405.4659">Huevo()</text><ellipse cx="920" cy="420.6019" fill="#84BE84" rx="3" ry="3" style="stroke:#038048;stroke-width:1.0;"/><text fill="#000000" font-family="sans-serif" font-size="14" lengthAdjust="spacing" textLength="93" x="929" y="424.5339">void mostrar()</text></g><!--class Salsa--><g id="elem_Salsa"><rect codeLine="61" fill="#F1F1F1" height="105.2038" id="Salsa" rx="2.5" ry="2.5" style="stroke:#181818;stroke-width:0.5;" width="279" x="1063" y="337"/><ellipse cx="1181.75" cy="353" fill="#A9DCDF" rx="11" ry="11" style="stroke:#181818;stroke-width:1.0;"/><path d="M1180.375,346.3594 L1183.3594,346.3594 L1186.7188,358.75 L1184.2656,358.75 L1183.5,355.6875 L1180.2188,355.6875 L1179.4688,358.75 L1177.0313,358.75 L1180.375,346.3594 Z M1183.0313,353.6719 L1181.8594,348.5938 L1180.7031,353.6719 L1183.0313,353.6719 Z " fill="#000000"/><text fill="#000000" font-family="sans-serif" font-size="14" font-style="italic" lengthAdjust="spacing" textLength="33" x="1202.25" y="358.432">Salsa</text><line style="stroke:#181818;stroke-width:0.5;" x1="1064" x2="1341" y1="369" y2="369"/><rect fill="none" height="6" style="stroke:#C82930;stroke-width:1.0;" width="6" x="1071" y="381.034"/><text fill="#000000" font-family="sans-serif" font-size="14" lengthAdjust="spacing" textLength="104" x="1083" y="387.9659">String cantidad</text><line style="stroke:#181818;stroke-width:0.5;" x1="1064" x2="1341" y1="396.0679" y2="396.0679"/><polygon fill="#FFFF44" points="1074,406.1019,1078,410.1019,1074,414.1019,1070,410.1019" style="stroke:#B38D22;stroke-width:1.0;"/><text fill="#000000" font-family="sans-serif" font-size="14" lengthAdjust="spacing" textLength="253" x="1083" y="415.0339">Salsa(String nombre, String cantidad)</text><ellipse cx="1074" cy="430.1698" fill="#84BE84" rx="3" ry="3" style="stroke:#038048;stroke-width:1.0;"/><text fill="#000000" font-family="sans-serif" font-size="14" lengthAdjust="spacing" textLength="113" x="1083" y="434.1018">String describir()</text></g><!--class Mayonesa--><g id="elem_Mayonesa"><rect codeLine="67" fill="#F1F1F1" height="86.1358" id="Mayonesa" rx="2.5" ry="2.5" style="stroke:#181818;stroke-width:0.5;" width="206" x="1044.5" y="502"/><ellipse cx="1109.25" cy="518" fill="#ADD1B2" rx="11" ry="11" style="stroke:#181818;stroke-width:1.0;"/><path d="M1109.0469,524.7344 Q1106.5625,524.7344 1105.2344,523.0938 Q1103.9219,521.4219 1103.9219,518.3125 Q1103.9219,515.1875 1105.2344,513.5313 Q1106.5625,511.875 1109.0469,511.875 Q1109.7656,511.875 1110.4219,512.0313 Q1111.0625,512.1875 1111.625,512.4844 L1111.625,515.2031 Q1111.2656,514.8594 1110.9688,514.6719 Q1110.6719,514.4688 1110.4063,514.3438 Q1110.0938,514.2031 1109.7813,514.1406 Q1109.4844,514.0781 1109.1719,514.0781 Q1107.8438,514.0781 1107.1563,515.1406 Q1106.4688,516.2344 1106.4688,518.3125 Q1106.4688,520.4063 1107.1563,521.4688 Q1107.8438,522.5469 1109.1719,522.5469 Q1109.8125,522.5469 1110.4063,522.2656 Q1110.7031,522.1406 1110.9844,521.9531 Q1111.2813,521.75 1111.625,521.4219 L1111.625,524.1406 Q1111.0469,524.4375 1110.4063,524.5938 Q1109.7813,524.7344 1109.0469,524.7344 Z " fill="#000000"/><text fill="#000000" font-family="sans-serif" font-size="14" lengthAdjust="spacing" textLength="68" x="1129.75" y="523.432">Mayonesa</text><line style="stroke:#181818;stroke-width:0.5;" x1="1045.5" x2="1249.5" y1="534" y2="534"/><line style="stroke:#181818;stroke-width:0.5;" x1="1045.5" x2="1249.5" y1="542" y2="542"/><ellipse cx="1055.5" cy="557.034" fill="#84BE84" rx="3" ry="3" style="stroke:#038048;stroke-width:1.0;"/><text fill="#000000" font-family="sans-serif" font-size="14" lengthAdjust="spacing" textLength="180" x="1064.5" y="560.9659">Mayonesa(String cantidad)</text><ellipse cx="1055.5" cy="576.1019" fill="#84BE84" rx="3" ry="3" style="stroke:#038048;stroke-width:1.0;"/><text fill="#000000" font-family="sans-serif" font-size="14" lengthAdjust="spacing" textLength="93" x="1064.5" y="580.0339">void mostrar()</text></g><!--class Ketchup--><g id="elem_Ketchup"><rect codeLine="72" fill="#F1F1F1" height="86.1358" id="Ketchup" rx="2.5" ry="2.5" style="stroke:#181818;stroke-width:0.5;" width="194" x="1285.5" y="502"/><ellipse cx="1350.25" cy="518" fill="#ADD1B2" rx="11" ry="11" style="stroke:#181818;stroke-width:1.0;"/><path d="M1350.0469,524.7344 Q1347.5625,524.7344 1346.2344,523.0938 Q1344.9219,521.4219 1344.9219,518.3125 Q1344.9219,515.1875 1346.2344,513.5313 Q1347.5625,511.875 1350.0469,511.875 Q1350.7656,511.875 1351.4219,512.0313 Q1352.0625,512.1875 1352.625,512.4844 L1352.625,515.2031 Q1352.2656,514.8594 1351.9688,514.6719 Q1351.6719,514.4688 1351.4063,514.3438 Q1351.0938,514.2031 1350.7813,514.1406 Q1350.4844,514.0781 1350.1719,514.0781 Q1348.8438,514.0781 1348.1563,515.1406 Q1347.4688,516.2344 1347.4688,518.3125 Q1347.4688,520.4063 1348.1563,521.4688 Q1348.8438,522.5469 1350.1719,522.5469 Q1350.8125,522.5469 1351.4063,522.2656 Q1351.7031,522.1406 1351.9844,521.9531 Q1352.2813,521.75 1352.625,521.4219 L1352.625,524.1406 Q1352.0469,524.4375 1351.4063,524.5938 Q1350.7813,524.7344 1350.0469,524.7344 Z " fill="#000000"/><text fill="#000000" font-family="sans-serif" font-size="14" lengthAdjust="spacing" textLength="56" x="1370.75" y="523.432">Ketchup</text><line style="stroke:#181818;stroke-width:0.5;" x1="1286.5" x2="1478.5" y1="534" y2="534"/><line style="stroke:#181818;stroke-width:0.5;" x1="1286.5" x2="1478.5" y1="542" y2="542"/><ellipse cx="1296.5" cy="557.034" fill="#84BE84" rx="3" ry="3" style="stroke:#038048;stroke-width:1.0;"/><text fill="#000000" font-family="sans-serif" font-size="14" lengthAdjust="spacing" textLength="168" x="1305.5" y="560.9659">Ketchup(String cantidad)</text><ellipse cx="1296.5" cy="576.1019" fill="#84BE84" rx="3" ry="3" style="stroke:#038048;stroke-width:1.0;"/><text fill="#000000" font-family="sans-serif" font-size="14" lengthAdjust="spacing" textLength="93" x="1305.5" y="580.0339">void mostrar()</text></g><!--reverse link Ingrediente to Pan--><g id="link_Ingrediente_Pan"><path d="M415.3737,110.0555 C367.7537,137.7755 320.99,165 276.56,190.86 " fill="none" id="Ingrediente-backto-Pan" style="stroke:#181818;stroke-width:1.0;"/><polygon fill="none" points="430.93,101,412.3552,104.87,418.3922,115.2409,430.93,101" style="stroke:#181818;stroke-width:1.0;"/></g><!--reverse link Pan to Integral--><g id="link_Pan_Integral"><path d="M177.3482,271.1738 C153.3782,296.5438 132.31,318.85 106.31,346.36 " fill="none" id="Pan-backto-Integral" style="stroke:#181818;stroke-width:1.0;"/><polygon fill="none" points="189.71,258.09,172.9869,267.0532,181.7095,275.2944,189.71,258.09" style="stroke:#181818;stroke-width:1.0;"/></g><!--reverse link Pan to Brioche--><g id="link_Pan_Brioche"><path d="M220.5,276.09 C220.5,301.46 220.5,318.85 220.5,346.36 " fill="none" id="Pan-backto-Brioche" style="stroke:#181818;stroke-width:1.0;"/><polygon fill="none" points="220.5,258.09,214.5,276.09,226.5,276.09,220.5,258.09" style="stroke:#181818;stroke-width:1.0;"/></g><!--reverse link Ingrediente to Carne--><g id="link_Ingrediente_Carne"><path d="M500.5,130.07 C500.5,149.19 500.5,152.87 500.5,171.98 " fill="none" id="Ingrediente-backto-Carne" style="stroke:#181818;stroke-width:1.0;"/><polygon fill="none" points="500.5,112.07,494.5,130.07,506.5,130.07,500.5,112.07" style="stroke:#181818;stroke-width:1.0;"/></g><!--reverse link Carne to Res--><g id="link_Carne_Res"><path d="M456.0099,292.0366 C441.1099,314.3366 433.88,325.13 419.75,346.26 " fill="none" id="Carne-backto-Res" style="stroke:#181818;stroke-width:1.0;"/><polygon fill="none" points="466.01,277.07,451.0211,288.7032,460.9988,295.3699,466.01,277.07" style="stroke:#181818;stroke-width:1.0;"/></g><!--reverse link Carne to Pollo--><g id="link_Carne_Pollo"><path d="M534.9247,293.1117 C546.2747,315.4117 551.23,325.13 561.99,346.26 " fill="none" id="Carne-backto-Pollo" style="stroke:#181818;stroke-width:1.0;"/><polygon fill="none" points="526.76,277.07,529.5775,295.8333,540.272,290.3902,526.76,277.07" style="stroke:#181818;stroke-width:1.0;"/></g><!--reverse link Ingrediente to Extra--><g id="link_Ingrediente_Extra"><path d="M586.6119,97.7332 C652.4619,126.2032 734.51,161.68 802.18,190.93 " fill="none" id="Ingrediente-backto-Extra" style="stroke:#181818;stroke-width:1.0;"/><polygon fill="none" points="570.09,90.59,584.2309,103.2405,588.993,92.2259,570.09,90.59" style="stroke:#181818;stroke-width:1.0;"/></g><!--reverse link Extra to Queso--><g id="link_Extra_Queso"><path d="M850.5265,273.8071 C834.6565,302.2371 820.53,327.55 804.66,355.96 " fill="none" id="Extra-backto-Queso" style="stroke:#181818;stroke-width:1.0;"/><polygon fill="none" points="859.3,258.09,845.2875,270.8826,855.7655,276.7316,859.3,258.09" style="stroke:#181818;stroke-width:1.0;"/></g><!--reverse link Queso to Cheddar--><g id="link_Queso_Cheddar"><path d="M755.4666,438.1331 C740.5066,461.1031 730.15,477 713.95,501.86 " fill="none" id="Queso-backto-Cheddar" style="stroke:#181818;stroke-width:1.0;"/><polygon fill="none" points="765.29,423.05,750.4389,434.8587,760.4943,441.4076,765.29,423.05" style="stroke:#181818;stroke-width:1.0;"/></g><!--reverse link Queso to Azul--><g id="link_Queso_Azul"><path d="M803.923,440.0301 C812.003,463.0001 816.93,477 825.68,501.86 " fill="none" id="Queso-backto-Azul" style="stroke:#181818;stroke-width:1.0;"/><polygon fill="none" points="797.95,423.05,798.2629,442.0211,809.583,438.0391,797.95,423.05" style="stroke:#181818;stroke-width:1.0;"/></g><!--reverse link Extra to Huevo--><g id="link_Extra_Huevo"><path d="M904.4726,273.8076 C918.6326,299.1776 929.61,318.85 944.98,346.36 " fill="none" id="Extra-backto-Huevo" style="stroke:#181818;stroke-width:1.0;"/><polygon fill="none" points="895.7,258.09,899.2334,276.7318,909.7118,270.8834,895.7,258.09" style="stroke:#181818;stroke-width:1.0;"/></g><!--reverse link Extra to Salsa--><g id="link_Extra_Salsa"><path d="M958.5796,266.1599 C1003.4996,288.6899 1048.11,311.07 1099.56,336.87 " fill="none" id="Extra-backto-Salsa" style="stroke:#181818;stroke-width:1.0;"/><polygon fill="none" points="942.49,258.09,955.8897,271.5231,961.2696,260.7967,942.49,258.09" style="stroke:#181818;stroke-width:1.0;"/></g><!--reverse link Salsa to Mayonesa--><g id="link_Salsa_Mayonesa"><path d="M1177.9582,458.985 C1171.0282,478.325 1169.32,483.11 1162.72,501.53 " fill="none" id="Salsa-backto-Mayonesa" style="stroke:#181818;stroke-width:1.0;"/><polygon fill="none" points="1184.03,442.04,1172.3099,456.9611,1183.6065,461.0089,1184.03,442.04" style="stroke:#181818;stroke-width:1.0;"/></g><!--reverse link Salsa to Ketchup--><g id="link_Salsa_Ketchup"><path d="M1276.6354,453.7205 C1299.4054,473.1405 1311.33,483.31 1332.99,501.78 " fill="none" id="Salsa-backto-Ketchup" style="stroke:#181818;stroke-width:1.0;"/><polygon fill="none" points="1262.94,442.04,1272.7419,458.2857,1280.529,449.1554,1262.94,442.04" style="stroke:#181818;stroke-width:1.0;"/></g><!--SRC=[ZPBHReCW58Rl-nGakz6uFSJMBDcoBEdM9pZ2YP9OQ02RRgRlFa70jW6dDqR-yt-7_tYWraO1DUHTD0ePHs5ms93nUI127cg5xgCYUwEuQ0X3JHMlkIfA9mpW0HToafoHWxIVLhriDa4ZEn04pmO5qzUDIEWqweLlC3KjYVNJ3hGr66mKT95WQOE_LX3zTQh4BIRAY-AIjfY4U6s14PDiGGbCPGbHV0mgAULI-4FdkatuU5TPvkSSCtoZZgqTCWGOXIADourZ9xjEfc5EMesBatazZ- -boRY2r6-EYAyUzNmfLn_CJheppscsBJ86AbfTTSZZnNytvFctxz84gsJizcn6lFLuIWQe9ca1Gcv7iOTEGuhq5FS6XE4CMDWxQyYjc2zTisEVy2C5NlLsu90Yg4M6d9lj1nhQziSqr8lhc7vIVm00]--></g></svg>