<?xml version="1.0" encoding="us-ascii" standalone="no"?><svg xmlns="http://www.w3.org/2000/svg" xmlns:xlink="http://www.w3.org/1999/xlink" contentStyleType="text/css" height="208px" preserveAspectRatio="none" style="width:725px;height:208px;background:#FFFFFF;" version="1.1" viewBox="0 0 725 208" width="725px" zoomAndPan="magnify"><defs/><g><!--class Empleado--><g id="elem_Empleado"><rect codeLine="2" fill="#F1F1F1" height="48" id="Empleado" rx="2.5" ry="2.5" style="stroke:#181818;stroke-width:0.5;" width="94" x="336.5" y="7"/><ellipse cx="351.5" cy="23" fill="#A9DCDF" rx="11" ry="11" style="stroke:#181818;stroke-width:1.0;"/><path d="M350.125,16.3594 L353.1094,16.3594 L356.4688,28.75 L354.0156,28.75 L353.25,25.6875 L349.9688,25.6875 L349.2188,28.75 L346.7813,28.75 L350.125,16.3594 Z M352.7813,23.6719 L351.6094,18.5938 L350.4531,23.6719 L352.7813,23.6719 Z " fill="#000000"/><text fill="#000000" font-family="sans-serif" font-size="14" font-style="italic" lengthAdjust="spacing" textLength="62" x="365.5" y="28.432">Empleado</text><line style="stroke:#181818;stroke-width:0.5;" x1="337.5" x2="429.5" y1="39" y2="39"/><line style="stroke:#181818;stroke-width:0.5;" x1="337.5" x2="429.5" y1="47" y2="47"/></g><!--class Camarero--><g id="elem_Camarero"><rect codeLine="3" fill="#F1F1F1" height="86.1358" id="Camarero" rx="2.5" ry="2.5" style="stroke:#181818;stroke-width:0.5;" width="305" x="7" y="115"/><ellipse cx="122.25" cy="131" fill="#ADD1B2" rx="11" ry="11" style="stroke:#181818;stroke-width:1.0;"/><path d="M122.0469,137.7344 Q119.5625,137.7344 118.2344,136.0938 Q116.9219,134.4219 116.9219,131.3125 Q116.9219,128.1875 118.2344,126.5313 Q119.5625,124.875 122.0469,124.875 Q122.7656,124.875 123.4219,125.0313 Q124.0625,125.1875 124.625,125.4844 L124.625,128.2031 Q124.2656,127.8594 123.9688,127.6719 Q123.6719,127.4688 123.4063,127.3438 Q123.0938,127.2031 122.7813,127.1406 Q122.4844,127.0781 122.1719,127.0781 Q120.8438,127.0781 120.1563,128.1406 Q119.4688,129.2344 119.4688,131.3125 Q119.4688,133.4063 120.1563,134.4688 Q120.8438,135.5469 122.1719,135.5469 Q122.8125,135.5469 123.4063,135.2656 Q123.7031,135.1406 123.9844,134.9531 Q124.2813,134.75 124.625,134.4219 L124.625,137.1406 Q124.0469,137.4375 123.4063,137.5938 Q122.7813,137.7344 122.0469,137.7344 Z " fill="#000000"/><text fill="#000000" font-family="sans-serif" font-size="14" lengthAdjust="spacing" textLength="66" x="142.75" y="136.432">Camarero</text><line style="stroke:#181818;stroke-width:0.5;" x1="8" x2="311" y1="147" y2="147"/><line style="stroke:#181818;stroke-width:0.5;" x1="8" x2="311" y1="155" y2="155"/><ellipse cx="18" cy="170.034" fill="#84BE84" rx="3" ry="3" style="stroke:#038048;stroke-width:1.0;"/><text fill="#000000" font-family="sans-serif" font-size="14" lengthAdjust="spacing" textLength="279" x="27" y="173.9659">void recibir(Hamburguesa hamburguesa)</text><ellipse cx="18" cy="189.1019" fill="#84BE84" rx="3" ry="3" style="stroke:#038048;stroke-width:1.0;"/><text fill="#000000" font-family="sans-serif" font-size="14" lengthAdjust="spacing" textLength="78" x="27" y="193.0339">void servir()</text></g><!--class Cocinero--><g id="elem_Cocinero"><rect codeLine="7" fill="#F1F1F1" height="86.1358" id="Cocinero" rx="2.5" ry="2.5" style="stroke:#181818;stroke-width:0.5;" width="222" x="496.5" y="115"/><ellipse cx="573.75" cy="131" fill="#ADD1B2" rx="11" ry="11" style="stroke:#181818;stroke-width:1.0;"/><path d="M573.5469,137.7344 Q571.0625,137.7344 569.7344,136.0938 Q568.4219,134.4219 568.4219,131.3125 Q568.4219,128.1875 569.7344,126.5313 Q571.0625,124.875 573.5469,124.875 Q574.2656,124.875 574.9219,125.0313 Q575.5625,125.1875 576.125,125.4844 L576.125,128.2031 Q575.7656,127.8594 575.4688,127.6719 Q575.1719,127.4688 574.9063,127.3438 Q574.5938,127.2031 574.2813,127.1406 Q573.9844,127.0781 573.6719,127.0781 Q572.3438,127.0781 571.6563,128.1406 Q570.9688,129.2344 570.9688,131.3125 Q570.9688,133.4063 571.6563,134.4688 Q572.3438,135.5469 573.6719,135.5469 Q574.3125,135.5469 574.9063,135.2656 Q575.2031,135.1406 575.4844,134.9531 Q575.7813,134.75 576.125,134.4219 L576.125,137.1406 Q575.5469,137.4375 574.9063,137.5938 Q574.2813,137.7344 573.5469,137.7344 Z " fill="#000000"/><text fill="#000000" font-family="sans-serif" font-size="14" lengthAdjust="spacing" textLength="59" x="594.25" y="136.432">Cocinero</text><line style="stroke:#181818;stroke-width:0.5;" x1="497.5" x2="717.5" y1="147" y2="147"/><line style="stroke:#181818;stroke-width:0.5;" x1="497.5" x2="717.5" y1="155" y2="155"/><ellipse cx="507.5" cy="170.034" fill="#84BE84" rx="3" ry="3" style="stroke:#038048;stroke-width:1.0;"/><text fill="#000000" font-family="sans-serif" font-size="14" lengthAdjust="spacing" textLength="196" x="516.5" y="173.9659">void prepararHamburguesa()</text><ellipse cx="507.5" cy="189.1019" fill="#84BE84" rx="3" ry="3" style="stroke:#038048;stroke-width:1.0;"/><text fill="#000000" font-family="sans-serif" font-size="14" lengthAdjust="spacing" textLength="167" x="516.5" y="193.0339">Hamburguesa entregar()</text></g><!--class Restaurante--><g id="elem_Restaurante"><rect fill="#F1F1F1" height="48" id="Restaurante" rx="2.5" ry="2.5" style="stroke:#181818;stroke-width:0.5;" width="114" x="347.5" y="134"/><ellipse cx="362.5" cy="150" fill="#ADD1B2" rx="11" ry="11" style="stroke:#181818;stroke-width:1.0;"/><path d="M362.2969,156.7344 Q359.8125,156.7344 358.4844,155.0938 Q357.1719,153.4219 357.1719,150.3125 Q357.1719,147.1875 358.4844,145.5313 Q359.8125,143.875 362.2969,143.875 Q363.0156,143.875 363.6719,144.0313 Q364.3125,144.1875 364.875,144.4844 L364.875,147.2031 Q364.5156,146.8594 364.2188,146.6719 Q363.9219,146.4688 363.6563,146.3438 Q363.3438,146.2031 363.0313,146.1406 Q362.7344,146.0781 362.4219,146.0781 Q361.0938,146.0781 360.4063,147.1406 Q359.7188,148.2344 359.7188,150.3125 Q359.7188,152.4063 360.4063,153.4688 Q361.0938,154.5469 362.4219,154.5469 Q363.0625,154.5469 363.6563,154.2656 Q363.9531,154.1406 364.2344,153.9531 Q364.5313,153.75 364.875,153.4219 L364.875,156.1406 Q364.2969,156.4375 363.6563,156.5938 Q363.0313,156.7344 362.2969,156.7344 Z " fill="#000000"/><text fill="#000000" font-family="sans-serif" font-size="14" lengthAdjust="spacing" textLength="82" x="376.5" y="155.432">Restaurante</text><line style="stroke:#181818;stroke-width:0.5;" x1="348.5" x2="460.5" y1="166" y2="166"/><line style="stroke:#181818;stroke-width:0.5;" x1="348.5" x2="460.5" y1="174" y2="174"/></g><!--reverse link Empleado to Camarero--><g id="link_Empleado_Camarero"><path codeLine="12" d="M326.432,63.8418 C296.472,80.5618 270.83,94.87 235.05,114.84 " fill="none" id="Empleado-backto-Camarero" style="stroke:#181818;stroke-width:1.0;"/><polygon fill="none" points="342.15,55.07,323.5081,58.6025,329.356,69.0812,342.15,55.07" style="stroke:#181818;stroke-width:1.0;"/></g><!--reverse link Empleado to Cocinero--><g id="link_Empleado_Cocinero"><path codeLine="13" d="M440.568,63.8418 C470.528,80.5618 496.17,94.87 531.95,114.84 " fill="none" id="Empleado-backto-Cocinero" style="stroke:#181818;stroke-width:1.0;"/><polygon fill="none" points="424.85,55.07,437.644,69.0812,443.4919,58.6025,424.85,55.07" style="stroke:#181818;stroke-width:1.0;"/></g><!--reverse link Restaurante to Cocinero--><g id="link_Restaurante_Cocinero"><path codeLine="15" d="M473.59,158 C485.18,158 484.77,158 496.36,158 " fill="none" id="Restaurante-backto-Cocinero" style="stroke:#181818;stroke-width:1.0;"/><polygon fill="#181818" points="461.59,158,467.59,162,473.59,158,467.59,154,461.59,158" style="stroke:#181818;stroke-width:1.0;"/></g><!--link Camarero to Restaurante--><g id="link_Camarero_Restaurante"><path codeLine="16" d="M312.15,158 C323.81,158 323.48,158 335.14,158 " fill="none" id="Camarero-to-Restaurante" style="stroke:#181818;stroke-width:1.0;"/><polygon fill="#181818" points="347.14,158,341.14,154,335.14,158,341.14,162,347.14,158" style="stroke:#181818;stroke-width:1.0;"/></g><!--SRC=[NOyx3eCm44Hxds9BIEGhf8aYfSuD1hCYbW2ZiKqJSlUuuHEsMksCtioYYObmIHx3r2lQO5oF6EME0LG6-HWfSvKv-5QepZUUrHD3azbbZP3tljT7RrJEnLgRxueCpey5-KUSg1C87eZLYZccw9Ye7GfF2j1izMososqllsQSx-QbCI4JOrAvMDgjpKdfxVQw-G40]--></g></svg>