<?xml version="1.0" encoding="us-ascii" standalone="no"?><svg xmlns="http://www.w3.org/2000/svg" xmlns:xlink="http://www.w3.org/1999/xlink" contentStyleType="text/css" height="874px" preserveAspectRatio="none" style="width:1475px;height:874px;background:#FFFFFF;" version="1.1" viewBox="0 0 1475 874" width="1475px" zoomAndPan="magnify"><defs/><g><!--class Extra--><g id="elem_Extra"><rect codeLine="2" fill="#F1F1F1" height="124.2717" id="Extra" rx="2.5" ry="2.5" style="stroke:#181818;stroke-width:0.5;" width="166" x="422.5" y="403.5"/><ellipse cx="484.75" cy="419.5" fill="#A9DCDF" rx="11" ry="11" style="stroke:#181818;stroke-width:1.0;"/><path d="M483.375,412.8594 L486.3594,412.8594 L489.7188,425.25 L487.2656,425.25 L486.5,422.1875 L483.2188,422.1875 L482.4688,425.25 L480.0313,425.25 L483.375,412.8594 Z M486.0313,420.1719 L484.8594,415.0938 L483.7031,420.1719 L486.0313,420.1719 Z " fill="#000000"/><text fill="#000000" font-family="sans-serif" font-size="14" font-style="italic" lengthAdjust="spacing" textLength="33" x="505.25" y="424.932">Extra</text><line style="stroke:#181818;stroke-width:0.5;" x1="423.5" x2="587.5" y1="435.5" y2="435.5"/><rect fill="none" height="6" style="stroke:#C82930;stroke-width:1.0;" width="6" x="430.5" y="447.534"/><text fill="#000000" font-family="sans-serif" font-size="14" lengthAdjust="spacing" textLength="98" x="442.5" y="454.4659">String nombre</text><line style="stroke:#181818;stroke-width:0.5;" x1="423.5" x2="587.5" y1="462.5679" y2="462.5679"/><ellipse cx="433.5" cy="477.6019" fill="#84BE84" rx="3" ry="3" style="stroke:#038048;stroke-width:1.0;"/><text fill="#000000" font-family="sans-serif" font-size="14" lengthAdjust="spacing" textLength="140" x="442.5" y="481.5339">Extra(String nombre)</text><ellipse cx="433.5" cy="496.6698" fill="#84BE84" rx="3" ry="3" style="stroke:#038048;stroke-width:1.0;"/><text fill="#000000" font-family="sans-serif" font-size="14" lengthAdjust="spacing" textLength="74" x="442.5" y="500.6018">String ver()</text><ellipse cx="433.5" cy="515.7377" fill="#84BE84" rx="3" ry="3" style="stroke:#038048;stroke-width:1.0;"/><text fill="#000000" font-family="sans-serif" font-size="14" lengthAdjust="spacing" textLength="93" x="442.5" y="519.6697">void mostrar()</text></g><!--class Queso--><g id="elem_Queso"><rect codeLine="9" fill="#F1F1F1" height="67.0679" id="Queso" rx="2.5" ry="2.5" style="stroke:#181818;stroke-width:0.5;" width="175" x="133" y="625.5"/><ellipse cx="196.75" cy="641.5" fill="#A9DCDF" rx="11" ry="11" style="stroke:#181818;stroke-width:1.0;"/><path d="M195.375,634.8594 L198.3594,634.8594 L201.7188,647.25 L199.2656,647.25 L198.5,644.1875 L195.2188,644.1875 L194.4688,647.25 L192.0313,647.25 L195.375,634.8594 Z M198.0313,642.1719 L196.8594,637.0938 L195.7031,642.1719 L198.0313,642.1719 Z " fill="#000000"/><text fill="#000000" font-family="sans-serif" font-size="14" font-style="italic" lengthAdjust="spacing" textLength="39" x="217.25" y="646.932">Queso</text><line style="stroke:#181818;stroke-width:0.5;" x1="134" x2="307" y1="657.5" y2="657.5"/><line style="stroke:#181818;stroke-width:0.5;" x1="134" x2="307" y1="665.5" y2="665.5"/><ellipse cx="144" cy="680.534" fill="#84BE84" rx="3" ry="3" style="stroke:#038048;stroke-width:1.0;"/><text fill="#000000" font-family="sans-serif" font-size="14" lengthAdjust="spacing" textLength="149" x="153" y="684.4659">Queso(String nombre)</text></g><!--class QuesoCheddar--><g id="elem_QuesoCheddar"><rect codeLine="13" fill="#F1F1F1" height="86.1358" id="QuesoCheddar" rx="2.5" ry="2.5" style="stroke:#181818;stroke-width:0.5;" width="135" x="7" y="781"/><ellipse cx="22.9" cy="797" fill="#ADD1B2" rx="11" ry="11" style="stroke:#181818;stroke-width:1.0;"/><path d="M22.6969,803.7344 Q20.2125,803.7344 18.8844,802.0938 Q17.5719,800.4219 17.5719,797.3125 Q17.5719,794.1875 18.8844,792.5313 Q20.2125,790.875 22.6969,790.875 Q23.4156,790.875 24.0719,791.0313 Q24.7125,791.1875 25.275,791.4844 L25.275,794.2031 Q24.9156,793.8594 24.6188,793.6719 Q24.3219,793.4688 24.0563,793.3438 Q23.7438,793.2031 23.4313,793.1406 Q23.1344,793.0781 22.8219,793.0781 Q21.4938,793.0781 20.8063,794.1406 Q20.1188,795.2344 20.1188,797.3125 Q20.1188,799.4063 20.8063,800.4688 Q21.4938,801.5469 22.8219,801.5469 Q23.4625,801.5469 24.0563,801.2656 Q24.3531,801.1406 24.6344,800.9531 Q24.9313,800.75 25.275,800.4219 L25.275,803.1406 Q24.6969,803.4375 24.0563,803.5938 Q23.4313,803.7344 22.6969,803.7344 Z " fill="#000000"/><text fill="#000000" font-family="sans-serif" font-size="14" lengthAdjust="spacing" textLength="101" x="37.1" y="802.432">QuesoCheddar</text><line style="stroke:#181818;stroke-width:0.5;" x1="8" x2="141" y1="813" y2="813"/><line style="stroke:#181818;stroke-width:0.5;" x1="8" x2="141" y1="821" y2="821"/><ellipse cx="18" cy="836.034" fill="#84BE84" rx="3" ry="3" style="stroke:#038048;stroke-width:1.0;"/><text fill="#000000" font-family="sans-serif" font-size="14" lengthAdjust="spacing" textLength="109" x="27" y="839.9659">QuesoCheddar()</text><ellipse cx="18" cy="855.1019" fill="#84BE84" rx="3" ry="3" style="stroke:#038048;stroke-width:1.0;"/><text fill="#000000" font-family="sans-serif" font-size="14" lengthAdjust="spacing" textLength="93" x="27" y="859.0339">void mostrar()</text></g><!--class QuesoAzul--><g id="elem_QuesoAzul"><rect codeLine="18" fill="#F1F1F1" height="86.1358" id="QuesoAzul" rx="2.5" ry="2.5" style="stroke:#181818;stroke-width:0.5;" width="119" x="177" y="781"/><ellipse cx="198.75" cy="797" fill="#ADD1B2" rx="11" ry="11" style="stroke:#181818;stroke-width:1.0;"/><path d="M198.5469,803.7344 Q196.0625,803.7344 194.7344,802.0938 Q193.4219,800.4219 193.4219,797.3125 Q193.4219,794.1875 194.7344,792.5313 Q196.0625,790.875 198.5469,790.875 Q199.2656,790.875 199.9219,791.0313 Q200.5625,791.1875 201.125,791.4844 L201.125,794.2031 Q200.7656,793.8594 200.4688,793.6719 Q200.1719,793.4688 199.9063,793.3438 Q199.5938,793.2031 199.2813,793.1406 Q198.9844,793.0781 198.6719,793.0781 Q197.3438,793.0781 196.6563,794.1406 Q195.9688,795.2344 195.9688,797.3125 Q195.9688,799.4063 196.6563,800.4688 Q197.3438,801.5469 198.6719,801.5469 Q199.3125,801.5469 199.9063,801.2656 Q200.2031,801.1406 200.4844,800.9531 Q200.7813,800.75 201.125,800.4219 L201.125,803.1406 Q200.5469,803.4375 199.9063,803.5938 Q199.2813,803.7344 198.5469,803.7344 Z " fill="#000000"/><text fill="#000000" font-family="sans-serif" font-size="14" lengthAdjust="spacing" textLength="72" x="214.25" y="802.432">QuesoAzul</text><line style="stroke:#181818;stroke-width:0.5;" x1="178" x2="295" y1="813" y2="813"/><line style="stroke:#181818;stroke-width:0.5;" x1="178" x2="295" y1="821" y2="821"/><ellipse cx="188" cy="836.034" fill="#84BE84" rx="3" ry="3" style="stroke:#038048;stroke-width:1.0;"/><text fill="#000000" font-family="sans-serif" font-size="14" lengthAdjust="spacing" textLength="80" x="197" y="839.9659">QuesoAzul()</text><ellipse cx="188" cy="855.1019" fill="#84BE84" rx="3" ry="3" style="stroke:#038048;stroke-width:1.0;"/><text fill="#000000" font-family="sans-serif" font-size="14" lengthAdjust="spacing" textLength="93" x="197" y="859.0339">void mostrar()</text></g><!--class Salsa--><g id="elem_Salsa"><rect codeLine="23" fill="#F1F1F1" height="124.2717" id="Salsa" rx="2.5" ry="2.5" style="stroke:#181818;stroke-width:0.5;" width="279" x="343" y="597"/><ellipse cx="460.75" cy="613" fill="#ADD1B2" rx="11" ry="11" style="stroke:#181818;stroke-width:1.0;"/><path d="M460.5469,619.7344 Q458.0625,619.7344 456.7344,618.0938 Q455.4219,616.4219 455.4219,613.3125 Q455.4219,610.1875 456.7344,608.5313 Q458.0625,606.875 460.5469,606.875 Q461.2656,606.875 461.9219,607.0313 Q462.5625,607.1875 463.125,607.4844 L463.125,610.2031 Q462.7656,609.8594 462.4688,609.6719 Q462.1719,609.4688 461.9063,609.3438 Q461.5938,609.2031 461.2813,609.1406 Q460.9844,609.0781 460.6719,609.0781 Q459.3438,609.0781 458.6563,610.1406 Q457.9688,611.2344 457.9688,613.3125 Q457.9688,615.4063 458.6563,616.4688 Q459.3438,617.5469 460.6719,617.5469 Q461.3125,617.5469 461.9063,617.2656 Q462.2031,617.1406 462.4844,616.9531 Q462.7813,616.75 463.125,616.4219 L463.125,619.1406 Q462.5469,619.4375 461.9063,619.5938 Q461.2813,619.7344 460.5469,619.7344 Z " fill="#000000"/><text fill="#000000" font-family="sans-serif" font-size="14" lengthAdjust="spacing" textLength="35" x="481.25" y="618.432">Salsa</text><line style="stroke:#181818;stroke-width:0.5;" x1="344" x2="621" y1="629" y2="629"/><rect fill="none" height="6" style="stroke:#C82930;stroke-width:1.0;" width="6" x="351" y="641.034"/><text fill="#000000" font-family="sans-serif" font-size="14" lengthAdjust="spacing" textLength="104" x="363" y="647.9659">String cantidad</text><line style="stroke:#181818;stroke-width:0.5;" x1="344" x2="621" y1="656.0679" y2="656.0679"/><ellipse cx="354" cy="671.1019" fill="#84BE84" rx="3" ry="3" style="stroke:#038048;stroke-width:1.0;"/><text fill="#000000" font-family="sans-serif" font-size="14" lengthAdjust="spacing" textLength="253" x="363" y="675.0339">Salsa(String nombre, String cantidad)</text><ellipse cx="354" cy="690.1698" fill="#84BE84" rx="3" ry="3" style="stroke:#038048;stroke-width:1.0;"/><text fill="#000000" font-family="sans-serif" font-size="14" lengthAdjust="spacing" textLength="74" x="363" y="694.1018">String ver()</text><ellipse cx="354" cy="709.2377" fill="#84BE84" rx="3" ry="3" style="stroke:#038048;stroke-width:1.0;"/><text fill="#000000" font-family="sans-serif" font-size="14" lengthAdjust="spacing" textLength="93" x="363" y="713.1697">void mostrar()</text></g><!--class Mayonesa--><g id="elem_Mayonesa"><rect codeLine="30" fill="#F1F1F1" height="86.1358" id="Mayonesa" rx="2.5" ry="2.5" style="stroke:#181818;stroke-width:0.5;" width="206" x="363.5" y="781"/><ellipse cx="428.25" cy="797" fill="#ADD1B2" rx="11" ry="11" style="stroke:#181818;stroke-width:1.0;"/><path d="M428.0469,803.7344 Q425.5625,803.7344 424.2344,802.0938 Q422.9219,800.4219 422.9219,797.3125 Q422.9219,794.1875 424.2344,792.5313 Q425.5625,790.875 428.0469,790.875 Q428.7656,790.875 429.4219,791.0313 Q430.0625,791.1875 430.625,791.4844 L430.625,794.2031 Q430.2656,793.8594 429.9688,793.6719 Q429.6719,793.4688 429.4063,793.3438 Q429.0938,793.2031 428.7813,793.1406 Q428.4844,793.0781 428.1719,793.0781 Q426.8438,793.0781 426.1563,794.1406 Q425.4688,795.2344 425.4688,797.3125 Q425.4688,799.4063 426.1563,800.4688 Q426.8438,801.5469 428.1719,801.5469 Q428.8125,801.5469 429.4063,801.2656 Q429.7031,801.1406 429.9844,800.9531 Q430.2813,800.75 430.625,800.4219 L430.625,803.1406 Q430.0469,803.4375 429.4063,803.5938 Q428.7813,803.7344 428.0469,803.7344 Z " fill="#000000"/><text fill="#000000" font-family="sans-serif" font-size="14" lengthAdjust="spacing" textLength="68" x="448.75" y="802.432">Mayonesa</text><line style="stroke:#181818;stroke-width:0.5;" x1="364.5" x2="568.5" y1="813" y2="813"/><line style="stroke:#181818;stroke-width:0.5;" x1="364.5" x2="568.5" y1="821" y2="821"/><ellipse cx="374.5" cy="836.034" fill="#84BE84" rx="3" ry="3" style="stroke:#038048;stroke-width:1.0;"/><text fill="#000000" font-family="sans-serif" font-size="14" lengthAdjust="spacing" textLength="180" x="383.5" y="839.9659">Mayonesa(String cantidad)</text><ellipse cx="374.5" cy="855.1019" fill="#84BE84" rx="3" ry="3" style="stroke:#038048;stroke-width:1.0;"/><text fill="#000000" font-family="sans-serif" font-size="14" lengthAdjust="spacing" textLength="93" x="383.5" y="859.0339">void mostrar()</text></g><!--class Ketchup--><g id="elem_Ketchup"><rect codeLine="35" fill="#F1F1F1" height="86.1358" id="Ketchup" rx="2.5" ry="2.5" style="stroke:#181818;stroke-width:0.5;" width="194" x="604.5" y="781"/><ellipse cx="669.25" cy="797" fill="#ADD1B2" rx="11" ry="11" style="stroke:#181818;stroke-width:1.0;"/><path d="M669.0469,803.7344 Q666.5625,803.7344 665.2344,802.0938 Q663.9219,800.4219 663.9219,797.3125 Q663.9219,794.1875 665.2344,792.5313 Q666.5625,790.875 669.0469,790.875 Q669.7656,790.875 670.4219,791.0313 Q671.0625,791.1875 671.625,791.4844 L671.625,794.2031 Q671.2656,793.8594 670.9688,793.6719 Q670.6719,793.4688 670.4063,793.3438 Q670.0938,793.2031 669.7813,793.1406 Q669.4844,793.0781 669.1719,793.0781 Q667.8438,793.0781 667.1563,794.1406 Q666.4688,795.2344 666.4688,797.3125 Q666.4688,799.4063 667.1563,800.4688 Q667.8438,801.5469 669.1719,801.5469 Q669.8125,801.5469 670.4063,801.2656 Q670.7031,801.1406 670.9844,800.9531 Q671.2813,800.75 671.625,800.4219 L671.625,803.1406 Q671.0469,803.4375 670.4063,803.5938 Q669.7813,803.7344 669.0469,803.7344 Z " fill="#000000"/><text fill="#000000" font-family="sans-serif" font-size="14" lengthAdjust="spacing" textLength="56" x="689.75" y="802.432">Ketchup</text><line style="stroke:#181818;stroke-width:0.5;" x1="605.5" x2="797.5" y1="813" y2="813"/><line style="stroke:#181818;stroke-width:0.5;" x1="605.5" x2="797.5" y1="821" y2="821"/><ellipse cx="615.5" cy="836.034" fill="#84BE84" rx="3" ry="3" style="stroke:#038048;stroke-width:1.0;"/><text fill="#000000" font-family="sans-serif" font-size="14" lengthAdjust="spacing" textLength="168" x="624.5" y="839.9659">Ketchup(String cantidad)</text><ellipse cx="615.5" cy="855.1019" fill="#84BE84" rx="3" ry="3" style="stroke:#038048;stroke-width:1.0;"/><text fill="#000000" font-family="sans-serif" font-size="14" lengthAdjust="spacing" textLength="93" x="624.5" y="859.0339">void mostrar()</text></g><!--class Huevo--><g id="elem_Huevo"><rect codeLine="40" fill="#F1F1F1" height="86.1358" id="Huevo" rx="2.5" ry="2.5" style="stroke:#181818;stroke-width:0.5;" width="119" x="657" y="616"/><ellipse cx="692.25" cy="632" fill="#ADD1B2" rx="11" ry="11" style="stroke:#181818;stroke-width:1.0;"/><path d="M692.0469,638.7344 Q689.5625,638.7344 688.2344,637.0938 Q686.9219,635.4219 686.9219,632.3125 Q686.9219,629.1875 688.2344,627.5313 Q689.5625,625.875 692.0469,625.875 Q692.7656,625.875 693.4219,626.0313 Q694.0625,626.1875 694.625,626.4844 L694.625,629.2031 Q694.2656,628.8594 693.9688,628.6719 Q693.6719,628.4688 693.4063,628.3438 Q693.0938,628.2031 692.7813,628.1406 Q692.4844,628.0781 692.1719,628.0781 Q690.8438,628.0781 690.1563,629.1406 Q689.4688,630.2344 689.4688,632.3125 Q689.4688,634.4063 690.1563,635.4688 Q690.8438,636.5469 692.1719,636.5469 Q692.8125,636.5469 693.4063,636.2656 Q693.7031,636.1406 693.9844,635.9531 Q694.2813,635.75 694.625,635.4219 L694.625,638.1406 Q694.0469,638.4375 693.4063,638.5938 Q692.7813,638.7344 692.0469,638.7344 Z " fill="#000000"/><text fill="#000000" font-family="sans-serif" font-size="14" lengthAdjust="spacing" textLength="42" x="710.75" y="637.432">Huevo</text><line style="stroke:#181818;stroke-width:0.5;" x1="658" x2="775" y1="648" y2="648"/><line style="stroke:#181818;stroke-width:0.5;" x1="658" x2="775" y1="656" y2="656"/><ellipse cx="668" cy="671.034" fill="#84BE84" rx="3" ry="3" style="stroke:#038048;stroke-width:1.0;"/><text fill="#000000" font-family="sans-serif" font-size="14" lengthAdjust="spacing" textLength="50" x="677" y="674.9659">Huevo()</text><ellipse cx="668" cy="690.1019" fill="#84BE84" rx="3" ry="3" style="stroke:#038048;stroke-width:1.0;"/><text fill="#000000" font-family="sans-serif" font-size="14" lengthAdjust="spacing" textLength="93" x="677" y="694.0339">void mostrar()</text></g><!--class Carne--><g id="elem_Carne"><rect codeLine="45" fill="#F1F1F1" height="143.3396" id="Carne" rx="2.5" ry="2.5" style="stroke:#181818;stroke-width:0.5;" width="275" x="810" y="394"/><ellipse cx="924.75" cy="410" fill="#A9DCDF" rx="11" ry="11" style="stroke:#181818;stroke-width:1.0;"/><path d="M923.375,403.3594 L926.3594,403.3594 L929.7188,415.75 L927.2656,415.75 L926.5,412.6875 L923.2188,412.6875 L922.4688,415.75 L920.0313,415.75 L923.375,403.3594 Z M926.0313,410.6719 L924.8594,405.5938 L923.7031,410.6719 L926.0313,410.6719 Z " fill="#000000"/><text fill="#000000" font-family="sans-serif" font-size="14" font-style="italic" lengthAdjust="spacing" textLength="37" x="945.25" y="415.432">Carne</text><line style="stroke:#181818;stroke-width:0.5;" x1="811" x2="1084" y1="426" y2="426"/><rect fill="none" height="6" style="stroke:#C82930;stroke-width:1.0;" width="6" x="818" y="438.034"/><text fill="#000000" font-family="sans-serif" font-size="14" lengthAdjust="spacing" textLength="98" x="830" y="444.9659">String nombre</text><rect fill="none" height="6" style="stroke:#C82930;stroke-width:1.0;" width="6" x="818" y="457.1019"/><text fill="#000000" font-family="sans-serif" font-size="14" lengthAdjust="spacing" textLength="95" x="830" y="464.0339">String coccion</text><line style="stroke:#181818;stroke-width:0.5;" x1="811" x2="1084" y1="472.1358" y2="472.1358"/><ellipse cx="821" cy="487.1698" fill="#84BE84" rx="3" ry="3" style="stroke:#038048;stroke-width:1.0;"/><text fill="#000000" font-family="sans-serif" font-size="14" lengthAdjust="spacing" textLength="249" x="830" y="491.1018">Carne(String nombre, String coccion)</text><ellipse cx="821" cy="506.2377" fill="#84BE84" rx="3" ry="3" style="stroke:#038048;stroke-width:1.0;"/><text fill="#000000" font-family="sans-serif" font-size="14" lengthAdjust="spacing" textLength="74" x="830" y="510.1697">String ver()</text><ellipse cx="821" cy="525.3056" fill="#84BE84" rx="3" ry="3" style="stroke:#038048;stroke-width:1.0;"/><text fill="#000000" font-family="sans-serif" font-size="14" lengthAdjust="spacing" textLength="93" x="830" y="529.2376">void mostrar()</text></g><!--class Res--><g id="elem_Res"><rect codeLine="53" fill="#F1F1F1" height="86.1358" id="Res" rx="2.5" ry="2.5" style="stroke:#181818;stroke-width:0.5;" width="153" x="1007" y="616"/><ellipse cx="1067.25" cy="632" fill="#ADD1B2" rx="11" ry="11" style="stroke:#181818;stroke-width:1.0;"/><path d="M1067.0469,638.7344 Q1064.5625,638.7344 1063.2344,637.0938 Q1061.9219,635.4219 1061.9219,632.3125 Q1061.9219,629.1875 1063.2344,627.5313 Q1064.5625,625.875 1067.0469,625.875 Q1067.7656,625.875 1068.4219,626.0313 Q1069.0625,626.1875 1069.625,626.4844 L1069.625,629.2031 Q1069.2656,628.8594 1068.9688,628.6719 Q1068.6719,628.4688 1068.4063,628.3438 Q1068.0938,628.2031 1067.7813,628.1406 Q1067.4844,628.0781 1067.1719,628.0781 Q1065.8438,628.0781 1065.1563,629.1406 Q1064.4688,630.2344 1064.4688,632.3125 Q1064.4688,634.4063 1065.1563,635.4688 Q1065.8438,636.5469 1067.1719,636.5469 Q1067.8125,636.5469 1068.4063,636.2656 Q1068.7031,636.1406 1068.9844,635.9531 Q1069.2813,635.75 1069.625,635.4219 L1069.625,638.1406 Q1069.0469,638.4375 1068.4063,638.5938 Q1067.7813,638.7344 1067.0469,638.7344 Z " fill="#000000"/><text fill="#000000" font-family="sans-serif" font-size="14" lengthAdjust="spacing" textLength="24" x="1087.75" y="637.432">Res</text><line style="stroke:#181818;stroke-width:0.5;" x1="1008" x2="1159" y1="648" y2="648"/><line style="stroke:#181818;stroke-width:0.5;" x1="1008" x2="1159" y1="656" y2="656"/><ellipse cx="1018" cy="671.034" fill="#84BE84" rx="3" ry="3" style="stroke:#038048;stroke-width:1.0;"/><text fill="#000000" font-family="sans-serif" font-size="14" lengthAdjust="spacing" textLength="127" x="1027" y="674.9659">Res(String coccion)</text><ellipse cx="1018" cy="690.1019" fill="#84BE84" rx="3" ry="3" style="stroke:#038048;stroke-width:1.0;"/><text fill="#000000" font-family="sans-serif" font-size="14" lengthAdjust="spacing" textLength="93" x="1027" y="694.0339">void mostrar()</text></g><!--class Pollo--><g id="elem_Pollo"><rect codeLine="58" fill="#F1F1F1" height="86.1358" id="Pollo" rx="2.5" ry="2.5" style="stroke:#181818;stroke-width:0.5;" width="161" x="811" y="616"/><ellipse cx="871.25" cy="632" fill="#ADD1B2" rx="11" ry="11" style="stroke:#181818;stroke-width:1.0;"/><path d="M871.0469,638.7344 Q868.5625,638.7344 867.2344,637.0938 Q865.9219,635.4219 865.9219,632.3125 Q865.9219,629.1875 867.2344,627.5313 Q868.5625,625.875 871.0469,625.875 Q871.7656,625.875 872.4219,626.0313 Q873.0625,626.1875 873.625,626.4844 L873.625,629.2031 Q873.2656,628.8594 872.9688,628.6719 Q872.6719,628.4688 872.4063,628.3438 Q872.0938,628.2031 871.7813,628.1406 Q871.4844,628.0781 871.1719,628.0781 Q869.8438,628.0781 869.1563,629.1406 Q868.4688,630.2344 868.4688,632.3125 Q868.4688,634.4063 869.1563,635.4688 Q869.8438,636.5469 871.1719,636.5469 Q871.8125,636.5469 872.4063,636.2656 Q872.7031,636.1406 872.9844,635.9531 Q873.2813,635.75 873.625,635.4219 L873.625,638.1406 Q873.0469,638.4375 872.4063,638.5938 Q871.7813,638.7344 871.0469,638.7344 Z " fill="#000000"/><text fill="#000000" font-family="sans-serif" font-size="14" lengthAdjust="spacing" textLength="32" x="891.75" y="637.432">Pollo</text><line style="stroke:#181818;stroke-width:0.5;" x1="812" x2="971" y1="648" y2="648"/><line style="stroke:#181818;stroke-width:0.5;" x1="812" x2="971" y1="656" y2="656"/><ellipse cx="822" cy="671.034" fill="#84BE84" rx="3" ry="3" style="stroke:#038048;stroke-width:1.0;"/><text fill="#000000" font-family="sans-serif" font-size="14" lengthAdjust="spacing" textLength="135" x="831" y="674.9659">Pollo(String coccion)</text><ellipse cx="822" cy="690.1019" fill="#84BE84" rx="3" ry="3" style="stroke:#038048;stroke-width:1.0;"/><text fill="#000000" font-family="sans-serif" font-size="14" lengthAdjust="spacing" textLength="93" x="831" y="694.0339">void mostrar()</text></g><!--class Pan--><g id="elem_Pan"><rect codeLine="63" fill="#F1F1F1" height="124.2717" id="Pan" rx="2.5" ry="2.5" style="stroke:#181818;stroke-width:0.5;" width="157" x="1176" y="403.5"/><ellipse cx="1238.25" cy="419.5" fill="#A9DCDF" rx="11" ry="11" style="stroke:#181818;stroke-width:1.0;"/><path d="M1236.875,412.8594 L1239.8594,412.8594 L1243.2188,425.25 L1240.7656,425.25 L1240,422.1875 L1236.7188,422.1875 L1235.9688,425.25 L1233.5313,425.25 L1236.875,412.8594 Z M1239.5313,420.1719 L1238.3594,415.0938 L1237.2031,420.1719 L1239.5313,420.1719 Z " fill="#000000"/><text fill="#000000" font-family="sans-serif" font-size="14" font-style="italic" lengthAdjust="spacing" textLength="24" x="1258.75" y="424.932">Pan</text><line style="stroke:#181818;stroke-width:0.5;" x1="1177" x2="1332" y1="435.5" y2="435.5"/><rect fill="none" height="6" style="stroke:#C82930;stroke-width:1.0;" width="6" x="1184" y="447.534"/><text fill="#000000" font-family="sans-serif" font-size="14" lengthAdjust="spacing" textLength="98" x="1196" y="454.4659">String nombre</text><line style="stroke:#181818;stroke-width:0.5;" x1="1177" x2="1332" y1="462.5679" y2="462.5679"/><ellipse cx="1187" cy="477.6019" fill="#84BE84" rx="3" ry="3" style="stroke:#038048;stroke-width:1.0;"/><text fill="#000000" font-family="sans-serif" font-size="14" lengthAdjust="spacing" textLength="131" x="1196" y="481.5339">Pan(String nombre)</text><ellipse cx="1187" cy="496.6698" fill="#84BE84" rx="3" ry="3" style="stroke:#038048;stroke-width:1.0;"/><text fill="#000000" font-family="sans-serif" font-size="14" lengthAdjust="spacing" textLength="74" x="1196" y="500.6018">String ver()</text><ellipse cx="1187" cy="515.7377" fill="#84BE84" rx="3" ry="3" style="stroke:#038048;stroke-width:1.0;"/><text fill="#000000" font-family="sans-serif" font-size="14" lengthAdjust="spacing" textLength="93" x="1196" y="519.6697">void mostrar()</text></g><!--class Brioche--><g id="elem_Brioche"><rect codeLine="70" fill="#F1F1F1" height="86.1358" id="Brioche" rx="2.5" ry="2.5" style="stroke:#181818;stroke-width:0.5;" width="119" x="1349" y="616"/><ellipse cx="1380.2" cy="632" fill="#ADD1B2" rx="11" ry="11" style="stroke:#181818;stroke-width:1.0;"/><path d="M1379.9969,638.7344 Q1377.5125,638.7344 1376.1844,637.0938 Q1374.8719,635.4219 1374.8719,632.3125 Q1374.8719,629.1875 1376.1844,627.5313 Q1377.5125,625.875 1379.9969,625.875 Q1380.7156,625.875 1381.3719,626.0313 Q1382.0125,626.1875 1382.575,626.4844 L1382.575,629.2031 Q1382.2156,628.8594 1381.9188,628.6719 Q1381.6219,628.4688 1381.3563,628.3438 Q1381.0438,628.2031 1380.7313,628.1406 Q1380.4344,628.0781 1380.1219,628.0781 Q1378.7938,628.0781 1378.1063,629.1406 Q1377.4188,630.2344 1377.4188,632.3125 Q1377.4188,634.4063 1378.1063,635.4688 Q1378.7938,636.5469 1380.1219,636.5469 Q1380.7625,636.5469 1381.3563,636.2656 Q1381.6531,636.1406 1381.9344,635.9531 Q1382.2313,635.75 1382.575,635.4219 L1382.575,638.1406 Q1381.9969,638.4375 1381.3563,638.5938 Q1380.7313,638.7344 1379.9969,638.7344 Z " fill="#000000"/><text fill="#000000" font-family="sans-serif" font-size="14" lengthAdjust="spacing" textLength="51" x="1397.8" y="637.432">Brioche</text><line style="stroke:#181818;stroke-width:0.5;" x1="1350" x2="1467" y1="648" y2="648"/><line style="stroke:#181818;stroke-width:0.5;" x1="1350" x2="1467" y1="656" y2="656"/><ellipse cx="1360" cy="671.034" fill="#84BE84" rx="3" ry="3" style="stroke:#038048;stroke-width:1.0;"/><text fill="#000000" font-family="sans-serif" font-size="14" lengthAdjust="spacing" textLength="59" x="1369" y="674.9659">Brioche()</text><ellipse cx="1360" cy="690.1019" fill="#84BE84" rx="3" ry="3" style="stroke:#038048;stroke-width:1.0;"/><text fill="#000000" font-family="sans-serif" font-size="14" lengthAdjust="spacing" textLength="93" x="1369" y="694.0339">void mostrar()</text></g><!--class Integral--><g id="elem_Integral"><rect codeLine="75" fill="#F1F1F1" height="86.1358" id="Integral" rx="2.5" ry="2.5" style="stroke:#181818;stroke-width:0.5;" width="119" x="1195" y="616"/><ellipse cx="1224.85" cy="632" fill="#ADD1B2" rx="11" ry="11" style="stroke:#181818;stroke-width:1.0;"/><path d="M1224.6469,638.7344 Q1222.1625,638.7344 1220.8344,637.0938 Q1219.5219,635.4219 1219.5219,632.3125 Q1219.5219,629.1875 1220.8344,627.5313 Q1222.1625,625.875 1224.6469,625.875 Q1225.3656,625.875 1226.0219,626.0313 Q1226.6625,626.1875 1227.225,626.4844 L1227.225,629.2031 Q1226.8656,628.8594 1226.5688,628.6719 Q1226.2719,628.4688 1226.0063,628.3438 Q1225.6938,628.2031 1225.3813,628.1406 Q1225.0844,628.0781 1224.7719,628.0781 Q1223.4438,628.0781 1222.7563,629.1406 Q1222.0688,630.2344 1222.0688,632.3125 Q1222.0688,634.4063 1222.7563,635.4688 Q1223.4438,636.5469 1224.7719,636.5469 Q1225.4125,636.5469 1226.0063,636.2656 Q1226.3031,636.1406 1226.5844,635.9531 Q1226.8813,635.75 1227.225,635.4219 L1227.225,638.1406 Q1226.6469,638.4375 1226.0063,638.5938 Q1225.3813,638.7344 1224.6469,638.7344 Z " fill="#000000"/><text fill="#000000" font-family="sans-serif" font-size="14" lengthAdjust="spacing" textLength="54" x="1242.15" y="637.432">Integral</text><line style="stroke:#181818;stroke-width:0.5;" x1="1196" x2="1313" y1="648" y2="648"/><line style="stroke:#181818;stroke-width:0.5;" x1="1196" x2="1313" y1="656" y2="656"/><ellipse cx="1206" cy="671.034" fill="#84BE84" rx="3" ry="3" style="stroke:#038048;stroke-width:1.0;"/><text fill="#000000" font-family="sans-serif" font-size="14" lengthAdjust="spacing" textLength="62" x="1215" y="674.9659">Integral()</text><ellipse cx="1206" cy="690.1019" fill="#84BE84" rx="3" ry="3" style="stroke:#038048;stroke-width:1.0;"/><text fill="#000000" font-family="sans-serif" font-size="14" lengthAdjust="spacing" textLength="93" x="1215" y="694.0339">void mostrar()</text></g><!--class Hamburguesa--><g id="elem_Hamburguesa"><rect codeLine="80" fill="#F1F1F1" height="181.4754" id="Hamburguesa" rx="2.5" ry="2.5" style="stroke:#181818;stroke-width:0.5;" width="571" x="559" y="153"/><ellipse cx="792.25" cy="169" fill="#ADD1B2" rx="11" ry="11" style="stroke:#181818;stroke-width:1.0;"/><path d="M792.0469,175.7344 Q789.5625,175.7344 788.2344,174.0938 Q786.9219,172.4219 786.9219,169.3125 Q786.9219,166.1875 788.2344,164.5313 Q789.5625,162.875 792.0469,162.875 Q792.7656,162.875 793.4219,163.0313 Q794.0625,163.1875 794.625,163.4844 L794.625,166.2031 Q794.2656,165.8594 793.9688,165.6719 Q793.6719,165.4688 793.4063,165.3438 Q793.0938,165.2031 792.7813,165.1406 Q792.4844,165.0781 792.1719,165.0781 Q790.8438,165.0781 790.1563,166.1406 Q789.4688,167.2344 789.4688,169.3125 Q789.4688,171.4063 790.1563,172.4688 Q790.8438,173.5469 792.1719,173.5469 Q792.8125,173.5469 793.4063,173.2656 Q793.7031,173.1406 793.9844,172.9531 Q794.2813,172.75 794.625,172.4219 L794.625,175.1406 Q794.0469,175.4375 793.4063,175.5938 Q792.7813,175.7344 792.0469,175.7344 Z " fill="#000000"/><text fill="#000000" font-family="sans-serif" font-size="14" lengthAdjust="spacing" textLength="96" x="812.75" y="174.432">Hamburguesa</text><line style="stroke:#181818;stroke-width:0.5;" x1="560" x2="1129" y1="185" y2="185"/><rect fill="none" height="6" style="stroke:#C82930;stroke-width:1.0;" width="6" x="567" y="197.034"/><text fill="#000000" font-family="sans-serif" font-size="14" lengthAdjust="spacing" textLength="80" x="579" y="203.9659">Pan[] panes</text><rect fill="none" height="6" style="stroke:#C82930;stroke-width:1.0;" width="6" x="567" y="216.1019"/><text fill="#000000" font-family="sans-serif" font-size="14" lengthAdjust="spacing" textLength="82" x="579" y="223.0339">Carne carne</text><rect fill="none" height="6" style="stroke:#C82930;stroke-width:1.0;" width="6" x="567" y="235.1698"/><text fill="#000000" font-family="sans-serif" font-size="14" lengthAdjust="spacing" textLength="89" x="579" y="242.1018">Extra[] extras</text><rect fill="none" height="6" style="stroke:#C82930;stroke-width:1.0;" width="6" x="567" y="254.2377"/><text fill="#000000" font-family="sans-serif" font-size="14" lengthAdjust="spacing" textLength="136" x="579" y="261.1697">int extrasAgregados</text><line style="stroke:#181818;stroke-width:0.5;" x1="560" x2="1129" y1="269.2717" y2="269.2717"/><ellipse cx="570" cy="284.3056" fill="#84BE84" rx="3" ry="3" style="stroke:#038048;stroke-width:1.0;"/><text fill="#000000" font-family="sans-serif" font-size="14" lengthAdjust="spacing" textLength="545" x="579" y="288.2376">Hamburguesa(Pan panSuperior, Pan panInferior, Carne carne, int numeroExtras)</text><ellipse cx="570" cy="303.3735" fill="#84BE84" rx="3" ry="3" style="stroke:#038048;stroke-width:1.0;"/><text fill="#000000" font-family="sans-serif" font-size="14" lengthAdjust="spacing" textLength="200" x="579" y="307.3055">void agregarExtra(Extra extra)</text><ellipse cx="570" cy="322.4415" fill="#84BE84" rx="3" ry="3" style="stroke:#038048;stroke-width:1.0;"/><text fill="#000000" font-family="sans-serif" font-size="14" lengthAdjust="spacing" textLength="61" x="579" y="326.3734">void ver()</text></g><!--class Cocinero--><g id="elem_Cocinero"><rect codeLine="90" fill="#F1F1F1" height="86.1358" id="Cocinero" rx="2.5" ry="2.5" style="stroke:#181818;stroke-width:0.5;" width="225" x="901" y="7"/><ellipse cx="979.75" cy="23" fill="#ADD1B2" rx="11" ry="11" style="stroke:#181818;stroke-width:1.0;"/><path d="M979.5469,29.7344 Q977.0625,29.7344 975.7344,28.0938 Q974.4219,26.4219 974.4219,23.3125 Q974.4219,20.1875 975.7344,18.5313 Q977.0625,16.875 979.5469,16.875 Q980.2656,16.875 980.9219,17.0313 Q981.5625,17.1875 982.125,17.4844 L982.125,20.2031 Q981.7656,19.8594 981.4688,19.6719 Q981.1719,19.4688 980.9063,19.3438 Q980.5938,19.2031 980.2813,19.1406 Q979.9844,19.0781 979.6719,19.0781 Q978.3438,19.0781 977.6563,20.1406 Q976.9688,21.2344 976.9688,23.3125 Q976.9688,25.4063 977.6563,26.4688 Q978.3438,27.5469 979.6719,27.5469 Q980.3125,27.5469 980.9063,27.2656 Q981.2031,27.1406 981.4844,26.9531 Q981.7813,26.75 982.125,26.4219 L982.125,29.1406 Q981.5469,29.4375 980.9063,29.5938 Q980.2813,29.7344 979.5469,29.7344 Z " fill="#000000"/><text fill="#000000" font-family="sans-serif" font-size="14" lengthAdjust="spacing" textLength="59" x="1000.25" y="28.432">Cocinero</text><line style="stroke:#181818;stroke-width:0.5;" x1="902" x2="1125" y1="39" y2="39"/><line style="stroke:#181818;stroke-width:0.5;" x1="902" x2="1125" y1="47" y2="47"/><ellipse cx="912" cy="62.034" fill="#84BE84" rx="3" ry="3" style="stroke:#038048;stroke-width:1.0;"/><text fill="#000000" font-family="sans-serif" font-size="14" lengthAdjust="spacing" textLength="196" x="921" y="65.9659">void prepararHamburguesa()</text><ellipse cx="912" cy="81.1019" fill="#84BE84" rx="3" ry="3" style="stroke:#038048;stroke-width:1.0;"/><text fill="#000000" font-family="sans-serif" font-size="14" lengthAdjust="spacing" textLength="199" x="921" y="85.0339">static void main(String[] args)</text></g><!--reverse link Extra to Queso--><g id="link_Extra_Queso"><path d="M407.3611,532.4413 C357.5811,565.9013 310.98,597.2 269.04,625.38 " fill="none" id="Extra-backto-Queso" style="stroke:#181818;stroke-width:1.0;"/><polygon fill="none" points="422.3,522.4,404.014,527.4617,410.7082,537.421,422.3,522.4" style="stroke:#181818;stroke-width:1.0;"/></g><!--reverse link Queso to QuesoCheddar--><g id="link_Queso_QuesoCheddar"><path d="M179.3017,705.999 C156.5817,731.369 136.89,753.35 112.24,780.86 " fill="none" id="Queso-backto-QuesoCheddar" style="stroke:#181818;stroke-width:1.0;"/><polygon fill="none" points="191.31,692.59,174.832,701.9962,183.7713,710.0017,191.31,692.59" style="stroke:#181818;stroke-width:1.0;"/></g><!--reverse link Queso to QuesoAzul--><g id="link_Queso_QuesoAzul"><path d="M225.4582,710.5039 C227.9482,735.8739 229.66,753.35 232.36,780.86 " fill="none" id="Queso-backto-QuesoAzul" style="stroke:#181818;stroke-width:1.0;"/><polygon fill="none" points="223.7,692.59,219.4869,711.09,231.4295,709.9179,223.7,692.59" style="stroke:#181818;stroke-width:1.0;"/></g><!--reverse link Extra to Salsa--><g id="link_Extra_Salsa"><path d="M496.01,545.4911 C493.35,567.6011 492.51,574.69 489.85,596.81 " fill="none" id="Extra-backto-Salsa" style="stroke:#181818;stroke-width:1.0;"/><polygon fill="none" points="498.16,527.62,490.0529,544.7745,501.967,546.2078,498.16,527.62" style="stroke:#181818;stroke-width:1.0;"/></g><!--reverse link Salsa to Mayonesa--><g id="link_Salsa_Mayonesa"><path d="M474.742,739.0739 C472.792,758.9439 472.43,762.63 470.64,780.8 " fill="none" id="Salsa-backto-Mayonesa" style="stroke:#181818;stroke-width:1.0;"/><polygon fill="none" points="476.5,721.16,468.7706,738.4879,480.7133,739.66,476.5,721.16" style="stroke:#181818;stroke-width:1.0;"/></g><!--reverse link Salsa to Ketchup--><g id="link_Salsa_Ketchup"><path d="M579.1101,731.9063 C605.8101,751.7763 620.39,762.63 644.8,780.8 " fill="none" id="Salsa-backto-Ketchup" style="stroke:#181818;stroke-width:1.0;"/><polygon fill="none" points="564.67,721.16,575.528,736.7197,582.6922,727.0929,564.67,721.16" style="stroke:#181818;stroke-width:1.0;"/></g><!--reverse link Extra to Huevo--><g id="link_Extra_Huevo"><path d="M586.1686,539.7174 C617.8886,568.5074 641.6,590.02 670.12,615.91 " fill="none" id="Extra-backto-Huevo" style="stroke:#181818;stroke-width:1.0;"/><polygon fill="none" points="572.84,527.62,582.1361,544.1603,590.2011,535.2746,572.84,527.62" style="stroke:#181818;stroke-width:1.0;"/></g><!--reverse link Carne to Res--><g id="link_Carne_Res"><path d="M1008.1723,551.9357 C1026.9423,578.3657 1037.22,592.84 1053.59,615.88 " fill="none" id="Carne-backto-Res" style="stroke:#181818;stroke-width:1.0;"/><polygon fill="none" points="997.75,537.26,1003.2804,555.4098,1013.0642,548.4616,997.75,537.26" style="stroke:#181818;stroke-width:1.0;"/></g><!--reverse link Carne to Pollo--><g id="link_Carne_Pollo"><path d="M921.7572,554.5363 C914.0272,580.9663 910.55,592.84 903.82,615.88 " fill="none" id="Carne-backto-Pollo" style="stroke:#181818;stroke-width:1.0;"/><polygon fill="none" points="926.81,537.26,915.9984,552.852,927.516,556.2205,926.81,537.26" style="stroke:#181818;stroke-width:1.0;"/></g><!--reverse link Pan to Brioche--><g id="link_Pan_Brioche"><path d="M1314.9295,541.6475 C1338.0795,570.4375 1353.83,590.02 1374.65,615.91 " fill="none" id="Pan-backto-Brioche" style="stroke:#181818;stroke-width:1.0;"/><polygon fill="none" points="1303.65,527.62,1310.2537,545.4074,1319.6054,537.8877,1303.65,527.62" style="stroke:#181818;stroke-width:1.0;"/></g><!--reverse link Pan to Integral--><g id="link_Pan_Integral"><path d="M1254.5,545.62 C1254.5,574.41 1254.5,590.02 1254.5,615.91 " fill="none" id="Pan-backto-Integral" style="stroke:#181818;stroke-width:1.0;"/><polygon fill="none" points="1254.5,527.62,1248.5,545.62,1260.5,545.62,1254.5,527.62" style="stroke:#181818;stroke-width:1.0;"/></g><!--link Cocinero to Pan--><g id="link_Cocinero_Pan"><path codeLine="95" d="M1117.07,93.13 C1143.53,108.4 1169.54,128.17 1187.5,153 C1241.24,227.29 1253.3065,329.9625 1255.2565,397.3525 " fill="none" id="Cocinero-to-Pan" style="stroke:#181818;stroke-width:1.0;"/><polygon fill="#181818" points="1255.43,403.35,1259.168,394.2381,1255.2854,398.3521,1251.1714,394.4695,1255.43,403.35" style="stroke:#181818;stroke-width:1.0;"/></g><!--link Cocinero to Carne--><g id="link_Cocinero_Carne"><path codeLine="96" d="M1092.96,93.02 C1114.67,108.73 1135.49,128.77 1147.5,153 C1183.22,225.08 1185.81,263.26 1147.5,334 C1132.94,360.89 1115.04,379.6053 1090,397.6253 " fill="none" id="Cocinero-to-Carne" style="stroke:#181818;stroke-width:1.0;"/><polygon fill="#181818" points="1085.13,401.13,1094.7715,399.1196,1089.1883,398.2094,1090.0986,392.6263,1085.13,401.13" style="stroke:#181818;stroke-width:1.0;"/></g><!--link Cocinero to Extra--><g id="link_Cocinero_Extra"><path codeLine="97" d="M900.74,60.44 C776.73,73.29 588.73,100.91 541.5,153 C480.07,220.75 482.9242,327.7885 492.7242,397.4585 " fill="none" id="Cocinero-to-Extra" style="stroke:#181818;stroke-width:1.0;"/><polygon fill="#181818" points="493.56,403.4,496.2674,393.9306,492.8635,398.4487,488.3454,395.0449,493.56,403.4" style="stroke:#181818;stroke-width:1.0;"/></g><!--link Cocinero to Hamburguesa--><g id="link_Cocinero_Hamburguesa"><path codeLine="98" d="M976.41,93.03 C960.87,110.64 946.1198,127.341 927.7398,148.171 " fill="none" id="Cocinero-to-Hamburguesa" style="stroke:#181818;stroke-width:1.0;"/><polygon fill="#181818" points="923.77,152.67,932.724,148.5681,927.0782,148.9209,926.7254,143.275,923.77,152.67" style="stroke:#181818;stroke-width:1.0;"/></g><!--reverse link Hamburguesa to Pan--><g id="link_Hamburguesa_Pan"><path codeLine="99" d="M1022.1335,339.8147 C1078.9635,370.3147 1129.25,397.29 1175.84,422.29 " fill="none" id="Hamburguesa-backto-Pan" style="stroke:#181818;stroke-width:1.0;"/><polygon fill="#181818" points="1011.56,334.14,1014.9552,340.5018,1022.1335,339.8147,1018.7383,333.4528,1011.56,334.14" style="stroke:#181818;stroke-width:1.0;"/></g><!--reverse link Hamburguesa to Carne--><g id="link_Hamburguesa_Carne"><path codeLine="100" d="M891.6287,345.1676 C900.9187,365.0076 905.55,374.89 914.42,393.85 " fill="none" id="Hamburguesa-backto-Carne" style="stroke:#181818;stroke-width:1.0;"/><polygon fill="#181818" points="886.54,334.3,885.4618,341.43,891.6287,345.1676,892.7069,338.0376,886.54,334.3" style="stroke:#181818;stroke-width:1.0;"/></g><!--reverse link Hamburguesa to Extra--><g id="link_Hamburguesa_Extra"><path codeLine="101" d="M696.0639,340.8325 C656.1539,366.7325 623.92,387.65 588.51,410.63 " fill="none" id="Hamburguesa-backto-Extra" style="stroke:#181818;stroke-width:1.0;"/><polygon fill="#181818" points="706.13,334.3,698.9194,334.2109,696.0639,340.8325,703.2744,340.9216,706.13,334.3" style="stroke:#181818;stroke-width:1.0;"/></g><!--SRC=[dPJBRi8m44Nt-Gelqq9-eH95bK1L9LgMLHU3CmsM4Zko7KHRzT_hLu8J9JpA0fHxnsSUdW0xfILGJMW9If6detaYFmandsoh9UC5uQBQINJIpFbfpxZpJj0EADEW70JBIIKitsg_IGBzPAyDAa7mg97d_TGpPmtp649qSBd7F0VPdVUq-7o8cAudeYs-c_8CojgNE5ie5OosqqwI0jSiXpnCpCRtUvoJGUGDm_L5lC2Nu1ZLuQiAlRHkEfvc2lgCckwRUfmPp1kHgmOF4tVlhAkNQ0cIu_J6TgCNb3B1FTITcPgy3xnvy6-ekdRYccR6I4VPKwIDA4inpdBMjRJ1e3R0pxpOnlttQ-tvZv89kiUky5E-MR0k4TPSOo6X74EqtYN62gfT8ui6kmND3ENzWzHW5jyBVgJKVdl1hP-9GViRWXZNuNbHI2mW5ogivob3QWiqu6rJesbHpaaGrlmp256kER5CtbGeXSkeubx0PP7-3zQ_3ovz7EDleUjrAIZZ1jREoCNK4cimGudB30obGJDA_EY0jHTk6WTPA0Vka5dsO9lf2wwPlkGgxKjHvYI-ZliiSyYXvgb3rOF_0000]--></g></svg>